<mxfile host="app.diagrams.net" modified="2022-09-12T06:11:00.233Z" agent="5.0 (Windows NT 10.0; Win64; x64) AppleWebKit/537.36 (KHTML, like Gecko) Chrome/105.0.0.0 Safari/537.36" etag="NPX3TWC06oOJrOVJiE3T" version="20.3.0" type="github">
  <diagram name="Page-1" id="2c4490ee-f0b8-94ab-5012-d5dc3445f7a3">
    <mxGraphModel dx="1038" dy="482" grid="1" gridSize="10" guides="1" tooltips="1" connect="0" arrows="1" fold="1" page="1" pageScale="1.5" pageWidth="1169" pageHeight="826" background="none" math="0" shadow="0">
      <root>
        <mxCell id="0" style=";html=1;" />
        <mxCell id="1" style=";html=1;" parent="0" />
        <mxCell id="j7-8gCURON169_EvJywG-1" value="" style="shape=table;html=1;whiteSpace=wrap;startSize=0;container=1;collapsible=0;childLayout=tableLayout;fontSize=16;strokeWidth=1;swimlaneLine=1;perimeterSpacing=0;strokeColor=#000000;shadow=0;sketch=0;" parent="1" vertex="1">
          <mxGeometry x="420" y="480" width="900" height="240" as="geometry" />
        </mxCell>
        <mxCell id="j7-8gCURON169_EvJywG-2" value="" style="shape=tableRow;horizontal=0;startSize=0;swimlaneHead=0;swimlaneBody=0;top=0;left=0;bottom=0;right=0;collapsible=0;dropTarget=0;fillColor=none;points=[[0,0.5],[1,0.5]];portConstraint=eastwest;fontSize=16;strokeColor=#000000;strokeWidth=1;perimeterSpacing=0;shadow=0;sketch=0;swimlaneLine=1;" parent="j7-8gCURON169_EvJywG-1" vertex="1">
          <mxGeometry width="900" height="40" as="geometry" />
        </mxCell>
        <mxCell id="j7-8gCURON169_EvJywG-3" value="N6" style="shape=partialRectangle;html=1;whiteSpace=wrap;connectable=0;fillColor=#4D4D4D;top=0;left=0;bottom=0;right=0;overflow=hidden;fontColor=#FFFFFF;fontSize=16;strokeColor=#000000;strokeWidth=1;perimeterSpacing=0;shadow=0;sketch=0;swimlaneLine=1;" parent="j7-8gCURON169_EvJywG-2" vertex="1">
          <mxGeometry width="29" height="40" as="geometry">
            <mxRectangle width="29" height="40" as="alternateBounds" />
          </mxGeometry>
        </mxCell>
        <mxCell id="j7-8gCURON169_EvJywG-176" style="shape=partialRectangle;html=1;whiteSpace=wrap;connectable=0;fillColor=none;top=0;left=0;bottom=0;right=0;overflow=hidden;fontSize=16;strokeColor=#000000;strokeWidth=1;perimeterSpacing=0;shadow=0;sketch=0;swimlaneLine=1;" parent="j7-8gCURON169_EvJywG-2" vertex="1">
          <mxGeometry x="29" width="29" height="40" as="geometry">
            <mxRectangle width="29" height="40" as="alternateBounds" />
          </mxGeometry>
        </mxCell>
        <mxCell id="j7-8gCURON169_EvJywG-170" style="shape=partialRectangle;html=1;whiteSpace=wrap;connectable=0;fillColor=none;top=0;left=0;bottom=0;right=0;overflow=hidden;fontSize=16;strokeColor=#000000;strokeWidth=1;perimeterSpacing=0;shadow=0;sketch=0;swimlaneLine=1;" parent="j7-8gCURON169_EvJywG-2" vertex="1">
          <mxGeometry x="58" width="29" height="40" as="geometry">
            <mxRectangle width="29" height="40" as="alternateBounds" />
          </mxGeometry>
        </mxCell>
        <mxCell id="j7-8gCURON169_EvJywG-164" style="shape=partialRectangle;html=1;whiteSpace=wrap;connectable=0;fillColor=none;top=0;left=0;bottom=0;right=0;overflow=hidden;fontSize=16;strokeColor=#000000;strokeWidth=1;perimeterSpacing=0;shadow=0;sketch=0;swimlaneLine=1;" parent="j7-8gCURON169_EvJywG-2" vertex="1">
          <mxGeometry x="87" width="29" height="40" as="geometry">
            <mxRectangle width="29" height="40" as="alternateBounds" />
          </mxGeometry>
        </mxCell>
        <mxCell id="j7-8gCURON169_EvJywG-158" style="shape=partialRectangle;html=1;whiteSpace=wrap;connectable=0;fillColor=none;top=0;left=0;bottom=0;right=0;overflow=hidden;fontSize=16;strokeColor=#000000;strokeWidth=1;perimeterSpacing=0;shadow=0;sketch=0;swimlaneLine=1;" parent="j7-8gCURON169_EvJywG-2" vertex="1">
          <mxGeometry x="116" width="29" height="40" as="geometry">
            <mxRectangle width="29" height="40" as="alternateBounds" />
          </mxGeometry>
        </mxCell>
        <mxCell id="j7-8gCURON169_EvJywG-152" style="shape=partialRectangle;html=1;whiteSpace=wrap;connectable=0;fillColor=none;top=0;left=0;bottom=0;right=0;overflow=hidden;fontSize=16;strokeColor=#000000;strokeWidth=1;perimeterSpacing=0;shadow=0;sketch=0;swimlaneLine=1;" parent="j7-8gCURON169_EvJywG-2" vertex="1">
          <mxGeometry x="145" width="29" height="40" as="geometry">
            <mxRectangle width="29" height="40" as="alternateBounds" />
          </mxGeometry>
        </mxCell>
        <mxCell id="j7-8gCURON169_EvJywG-146" value="F1" style="shape=partialRectangle;html=1;whiteSpace=wrap;connectable=0;fillColor=#d5e8d4;top=0;left=0;bottom=0;right=0;overflow=hidden;fontSize=16;strokeColor=#000000;strokeWidth=1;perimeterSpacing=0;shadow=0;sketch=0;swimlaneLine=1;" parent="j7-8gCURON169_EvJywG-2" vertex="1">
          <mxGeometry x="174" width="29" height="40" as="geometry">
            <mxRectangle width="29" height="40" as="alternateBounds" />
          </mxGeometry>
        </mxCell>
        <mxCell id="j7-8gCURON169_EvJywG-140" value="F2" style="shape=partialRectangle;html=1;whiteSpace=wrap;connectable=0;fillColor=#d5e8d4;top=0;left=0;bottom=0;right=0;overflow=hidden;fontSize=16;strokeColor=#000000;strokeWidth=1;perimeterSpacing=0;shadow=0;sketch=0;swimlaneLine=1;" parent="j7-8gCURON169_EvJywG-2" vertex="1">
          <mxGeometry x="203" width="29" height="40" as="geometry">
            <mxRectangle width="29" height="40" as="alternateBounds" />
          </mxGeometry>
        </mxCell>
        <mxCell id="j7-8gCURON169_EvJywG-134" value="F3" style="shape=partialRectangle;html=1;whiteSpace=wrap;connectable=0;fillColor=#d5e8d4;top=0;left=0;bottom=0;right=0;overflow=hidden;fontSize=16;strokeColor=#000000;strokeWidth=1;perimeterSpacing=0;shadow=0;sketch=0;swimlaneLine=1;" parent="j7-8gCURON169_EvJywG-2" vertex="1">
          <mxGeometry x="232" width="29" height="40" as="geometry">
            <mxRectangle width="29" height="40" as="alternateBounds" />
          </mxGeometry>
        </mxCell>
        <mxCell id="j7-8gCURON169_EvJywG-128" value="F4" style="shape=partialRectangle;html=1;whiteSpace=wrap;connectable=0;fillColor=#d5e8d4;top=0;left=0;bottom=0;right=0;overflow=hidden;fontSize=16;strokeColor=#000000;strokeWidth=1;perimeterSpacing=0;shadow=0;sketch=0;swimlaneLine=1;" parent="j7-8gCURON169_EvJywG-2" vertex="1">
          <mxGeometry x="261" width="29" height="40" as="geometry">
            <mxRectangle width="29" height="40" as="alternateBounds" />
          </mxGeometry>
        </mxCell>
        <mxCell id="j7-8gCURON169_EvJywG-122" value="F5" style="shape=partialRectangle;html=1;whiteSpace=wrap;connectable=0;fillColor=#d5e8d4;top=0;left=0;bottom=0;right=0;overflow=hidden;fontSize=16;strokeColor=#000000;strokeWidth=1;perimeterSpacing=0;shadow=0;sketch=0;swimlaneLine=1;" parent="j7-8gCURON169_EvJywG-2" vertex="1">
          <mxGeometry x="290" width="29" height="40" as="geometry">
            <mxRectangle width="29" height="40" as="alternateBounds" />
          </mxGeometry>
        </mxCell>
        <mxCell id="j7-8gCURON169_EvJywG-116" value="B5" style="shape=partialRectangle;html=1;whiteSpace=wrap;connectable=0;fillColor=#d5e8d4;top=0;left=0;bottom=0;right=0;overflow=hidden;fontSize=16;rowspan=1;colspan=2;strokeColor=#000000;strokeWidth=1;perimeterSpacing=0;shadow=0;sketch=0;swimlaneLine=1;" parent="j7-8gCURON169_EvJywG-2" vertex="1">
          <mxGeometry x="319" width="58" height="40" as="geometry">
            <mxRectangle width="29" height="40" as="alternateBounds" />
          </mxGeometry>
        </mxCell>
        <mxCell id="j7-8gCURON169_EvJywG-110" style="shape=partialRectangle;html=1;whiteSpace=wrap;connectable=0;fillColor=#ffe6cc;top=0;left=0;bottom=0;right=0;overflow=hidden;fontSize=16;strokeColor=#d79b00;" parent="j7-8gCURON169_EvJywG-2" vertex="1" visible="0">
          <mxGeometry x="348" width="29" height="40" as="geometry">
            <mxRectangle width="29" height="40" as="alternateBounds" />
          </mxGeometry>
        </mxCell>
        <mxCell id="j7-8gCURON169_EvJywG-104" value="B4" style="shape=partialRectangle;html=1;whiteSpace=wrap;connectable=0;fillColor=#d5e8d4;top=0;left=0;bottom=0;right=0;overflow=hidden;fontSize=16;rowspan=1;colspan=2;strokeColor=#000000;strokeWidth=1;perimeterSpacing=0;shadow=0;sketch=0;swimlaneLine=1;" parent="j7-8gCURON169_EvJywG-2" vertex="1">
          <mxGeometry x="377" width="58" height="40" as="geometry">
            <mxRectangle width="29" height="40" as="alternateBounds" />
          </mxGeometry>
        </mxCell>
        <mxCell id="j7-8gCURON169_EvJywG-98" style="shape=partialRectangle;html=1;whiteSpace=wrap;connectable=0;fillColor=#ffe6cc;top=0;left=0;bottom=0;right=0;overflow=hidden;fontSize=16;strokeColor=#d79b00;" parent="j7-8gCURON169_EvJywG-2" vertex="1" visible="0">
          <mxGeometry x="406" width="29" height="40" as="geometry">
            <mxRectangle width="29" height="40" as="alternateBounds" />
          </mxGeometry>
        </mxCell>
        <mxCell id="j7-8gCURON169_EvJywG-92" value="B3" style="shape=partialRectangle;html=1;whiteSpace=wrap;connectable=0;fillColor=#d5e8d4;top=0;left=0;bottom=0;right=0;overflow=hidden;fontSize=16;rowspan=1;colspan=2;strokeColor=#000000;strokeWidth=1;perimeterSpacing=0;shadow=0;sketch=0;swimlaneLine=1;" parent="j7-8gCURON169_EvJywG-2" vertex="1">
          <mxGeometry x="435" width="59" height="40" as="geometry">
            <mxRectangle width="30" height="40" as="alternateBounds" />
          </mxGeometry>
        </mxCell>
        <mxCell id="j7-8gCURON169_EvJywG-86" style="shape=partialRectangle;html=1;whiteSpace=wrap;connectable=0;fillColor=#ffe6cc;top=0;left=0;bottom=0;right=0;overflow=hidden;fontSize=16;strokeColor=#d79b00;" parent="j7-8gCURON169_EvJywG-2" vertex="1" visible="0">
          <mxGeometry x="465" width="29" height="40" as="geometry">
            <mxRectangle width="29" height="40" as="alternateBounds" />
          </mxGeometry>
        </mxCell>
        <mxCell id="j7-8gCURON169_EvJywG-80" value="B2" style="shape=partialRectangle;html=1;whiteSpace=wrap;connectable=0;fillColor=#d5e8d4;top=0;left=0;bottom=0;right=0;overflow=hidden;fontSize=16;rowspan=1;colspan=2;strokeColor=#000000;strokeWidth=1;perimeterSpacing=0;shadow=0;sketch=0;swimlaneLine=1;" parent="j7-8gCURON169_EvJywG-2" vertex="1">
          <mxGeometry x="494" width="58" height="40" as="geometry">
            <mxRectangle width="29" height="40" as="alternateBounds" />
          </mxGeometry>
        </mxCell>
        <mxCell id="j7-8gCURON169_EvJywG-74" style="shape=partialRectangle;html=1;whiteSpace=wrap;connectable=0;fillColor=#ffe6cc;top=0;left=0;bottom=0;right=0;overflow=hidden;fontSize=16;strokeColor=#d79b00;" parent="j7-8gCURON169_EvJywG-2" vertex="1" visible="0">
          <mxGeometry x="523" width="29" height="40" as="geometry">
            <mxRectangle width="29" height="40" as="alternateBounds" />
          </mxGeometry>
        </mxCell>
        <mxCell id="j7-8gCURON169_EvJywG-68" value="B1" style="shape=partialRectangle;html=1;whiteSpace=wrap;connectable=0;fillColor=#d5e8d4;top=0;left=0;bottom=0;right=0;overflow=hidden;fontSize=16;rowspan=1;colspan=2;strokeColor=#000000;strokeWidth=1;perimeterSpacing=0;shadow=0;sketch=0;swimlaneLine=1;" parent="j7-8gCURON169_EvJywG-2" vertex="1">
          <mxGeometry x="552" width="58" height="40" as="geometry">
            <mxRectangle width="29" height="40" as="alternateBounds" />
          </mxGeometry>
        </mxCell>
        <mxCell id="j7-8gCURON169_EvJywG-62" style="shape=partialRectangle;html=1;whiteSpace=wrap;connectable=0;fillColor=none;top=0;left=0;bottom=0;right=0;overflow=hidden;fontSize=16;" parent="j7-8gCURON169_EvJywG-2" vertex="1" visible="0">
          <mxGeometry x="581" width="29" height="40" as="geometry">
            <mxRectangle width="29" height="40" as="alternateBounds" />
          </mxGeometry>
        </mxCell>
        <mxCell id="j7-8gCURON169_EvJywG-56" style="shape=partialRectangle;html=1;whiteSpace=wrap;connectable=0;fillColor=none;top=0;left=0;bottom=0;right=0;overflow=hidden;fontSize=16;strokeColor=#000000;strokeWidth=1;perimeterSpacing=0;shadow=0;sketch=0;swimlaneLine=1;" parent="j7-8gCURON169_EvJywG-2" vertex="1">
          <mxGeometry x="610" width="29" height="40" as="geometry">
            <mxRectangle width="29" height="40" as="alternateBounds" />
          </mxGeometry>
        </mxCell>
        <mxCell id="j7-8gCURON169_EvJywG-50" style="shape=partialRectangle;html=1;whiteSpace=wrap;connectable=0;fillColor=none;top=0;left=0;bottom=0;right=0;overflow=hidden;fontSize=16;strokeColor=#000000;strokeWidth=1;perimeterSpacing=0;shadow=0;sketch=0;swimlaneLine=1;" parent="j7-8gCURON169_EvJywG-2" vertex="1">
          <mxGeometry x="639" width="29" height="40" as="geometry">
            <mxRectangle width="29" height="40" as="alternateBounds" />
          </mxGeometry>
        </mxCell>
        <mxCell id="j7-8gCURON169_EvJywG-44" style="shape=partialRectangle;html=1;whiteSpace=wrap;connectable=0;fillColor=none;top=0;left=0;bottom=0;right=0;overflow=hidden;fontSize=16;strokeColor=#000000;strokeWidth=1;perimeterSpacing=0;shadow=0;sketch=0;swimlaneLine=1;" parent="j7-8gCURON169_EvJywG-2" vertex="1">
          <mxGeometry x="668" width="29" height="40" as="geometry">
            <mxRectangle width="29" height="40" as="alternateBounds" />
          </mxGeometry>
        </mxCell>
        <mxCell id="j7-8gCURON169_EvJywG-38" style="shape=partialRectangle;html=1;whiteSpace=wrap;connectable=0;fillColor=none;top=0;left=0;bottom=0;right=0;overflow=hidden;fontSize=16;strokeColor=#000000;strokeWidth=1;perimeterSpacing=0;shadow=0;sketch=0;swimlaneLine=1;" parent="j7-8gCURON169_EvJywG-2" vertex="1">
          <mxGeometry x="697" width="29" height="40" as="geometry">
            <mxRectangle width="29" height="40" as="alternateBounds" />
          </mxGeometry>
        </mxCell>
        <mxCell id="j7-8gCURON169_EvJywG-32" style="shape=partialRectangle;html=1;whiteSpace=wrap;connectable=0;fillColor=none;top=0;left=0;bottom=0;right=0;overflow=hidden;fontSize=16;strokeColor=#000000;strokeWidth=1;perimeterSpacing=0;shadow=0;sketch=0;swimlaneLine=1;" parent="j7-8gCURON169_EvJywG-2" vertex="1">
          <mxGeometry x="726" width="29" height="40" as="geometry">
            <mxRectangle width="29" height="40" as="alternateBounds" />
          </mxGeometry>
        </mxCell>
        <mxCell id="j7-8gCURON169_EvJywG-26" style="shape=partialRectangle;html=1;whiteSpace=wrap;connectable=0;fillColor=none;top=0;left=0;bottom=0;right=0;overflow=hidden;fontSize=16;strokeColor=#000000;strokeWidth=1;perimeterSpacing=0;shadow=0;sketch=0;swimlaneLine=1;" parent="j7-8gCURON169_EvJywG-2" vertex="1">
          <mxGeometry x="755" width="29" height="40" as="geometry">
            <mxRectangle width="29" height="40" as="alternateBounds" />
          </mxGeometry>
        </mxCell>
        <mxCell id="j7-8gCURON169_EvJywG-4" value="" style="shape=partialRectangle;html=1;whiteSpace=wrap;connectable=0;fillColor=none;top=0;left=0;bottom=0;right=0;overflow=hidden;fontSize=16;strokeColor=#000000;strokeWidth=1;perimeterSpacing=0;shadow=0;sketch=0;swimlaneLine=1;" parent="j7-8gCURON169_EvJywG-2" vertex="1">
          <mxGeometry x="784" width="29" height="40" as="geometry">
            <mxRectangle width="29" height="40" as="alternateBounds" />
          </mxGeometry>
        </mxCell>
        <mxCell id="j7-8gCURON169_EvJywG-233" style="shape=partialRectangle;html=1;whiteSpace=wrap;connectable=0;fillColor=none;top=0;left=0;bottom=0;right=0;overflow=hidden;fontSize=16;strokeColor=#000000;strokeWidth=1;perimeterSpacing=0;shadow=0;sketch=0;swimlaneLine=1;" parent="j7-8gCURON169_EvJywG-2" vertex="1">
          <mxGeometry x="813" width="29" height="40" as="geometry">
            <mxRectangle width="29" height="40" as="alternateBounds" />
          </mxGeometry>
        </mxCell>
        <mxCell id="j7-8gCURON169_EvJywG-227" style="shape=partialRectangle;html=1;whiteSpace=wrap;connectable=0;fillColor=none;top=0;left=0;bottom=0;right=0;overflow=hidden;fontSize=16;strokeColor=#000000;strokeWidth=1;perimeterSpacing=0;shadow=0;sketch=0;swimlaneLine=1;" parent="j7-8gCURON169_EvJywG-2" vertex="1">
          <mxGeometry x="842" width="29" height="40" as="geometry">
            <mxRectangle width="29" height="40" as="alternateBounds" />
          </mxGeometry>
        </mxCell>
        <mxCell id="j7-8gCURON169_EvJywG-5" value="" style="shape=partialRectangle;html=1;whiteSpace=wrap;connectable=0;fillColor=none;top=0;left=0;bottom=0;right=0;overflow=hidden;fontSize=16;strokeColor=#000000;strokeWidth=1;perimeterSpacing=0;shadow=0;sketch=0;swimlaneLine=1;" parent="j7-8gCURON169_EvJywG-2" vertex="1">
          <mxGeometry x="871" width="29" height="40" as="geometry">
            <mxRectangle width="29" height="40" as="alternateBounds" />
          </mxGeometry>
        </mxCell>
        <mxCell id="j7-8gCURON169_EvJywG-6" value="" style="shape=tableRow;horizontal=0;startSize=0;swimlaneHead=0;swimlaneBody=0;top=0;left=0;bottom=0;right=0;collapsible=0;dropTarget=0;fillColor=none;points=[[0,0.5],[1,0.5]];portConstraint=eastwest;fontSize=16;strokeColor=#000000;strokeWidth=1;perimeterSpacing=0;shadow=0;sketch=0;swimlaneLine=1;" parent="j7-8gCURON169_EvJywG-1" vertex="1">
          <mxGeometry y="40" width="900" height="40" as="geometry" />
        </mxCell>
        <mxCell id="j7-8gCURON169_EvJywG-7" value="N5" style="shape=partialRectangle;html=1;whiteSpace=wrap;connectable=0;fillColor=#4D4D4D;top=0;left=0;bottom=0;right=0;overflow=hidden;fontColor=#FFFFFF;fontSize=16;strokeColor=#000000;strokeWidth=1;perimeterSpacing=0;shadow=0;sketch=0;swimlaneLine=1;" parent="j7-8gCURON169_EvJywG-6" vertex="1">
          <mxGeometry width="29" height="40" as="geometry">
            <mxRectangle width="29" height="40" as="alternateBounds" />
          </mxGeometry>
        </mxCell>
        <mxCell id="j7-8gCURON169_EvJywG-177" style="shape=partialRectangle;html=1;whiteSpace=wrap;connectable=0;fillColor=none;top=0;left=0;bottom=0;right=0;overflow=hidden;fontSize=16;strokeColor=#000000;strokeWidth=1;perimeterSpacing=0;shadow=0;sketch=0;swimlaneLine=1;" parent="j7-8gCURON169_EvJywG-6" vertex="1">
          <mxGeometry x="29" width="29" height="40" as="geometry">
            <mxRectangle width="29" height="40" as="alternateBounds" />
          </mxGeometry>
        </mxCell>
        <mxCell id="j7-8gCURON169_EvJywG-171" style="shape=partialRectangle;html=1;whiteSpace=wrap;connectable=0;fillColor=none;top=0;left=0;bottom=0;right=0;overflow=hidden;fontSize=16;strokeColor=#000000;strokeWidth=1;perimeterSpacing=0;shadow=0;sketch=0;swimlaneLine=1;" parent="j7-8gCURON169_EvJywG-6" vertex="1">
          <mxGeometry x="58" width="29" height="40" as="geometry">
            <mxRectangle width="29" height="40" as="alternateBounds" />
          </mxGeometry>
        </mxCell>
        <mxCell id="j7-8gCURON169_EvJywG-165" style="shape=partialRectangle;html=1;whiteSpace=wrap;connectable=0;fillColor=none;top=0;left=0;bottom=0;right=0;overflow=hidden;fontSize=16;strokeColor=#000000;strokeWidth=1;perimeterSpacing=0;shadow=0;sketch=0;swimlaneLine=1;" parent="j7-8gCURON169_EvJywG-6" vertex="1">
          <mxGeometry x="87" width="29" height="40" as="geometry">
            <mxRectangle width="29" height="40" as="alternateBounds" />
          </mxGeometry>
        </mxCell>
        <mxCell id="j7-8gCURON169_EvJywG-159" style="shape=partialRectangle;html=1;whiteSpace=wrap;connectable=0;fillColor=none;top=0;left=0;bottom=0;right=0;overflow=hidden;fontSize=16;strokeColor=#000000;strokeWidth=1;perimeterSpacing=0;shadow=0;sketch=0;swimlaneLine=1;" parent="j7-8gCURON169_EvJywG-6" vertex="1">
          <mxGeometry x="116" width="29" height="40" as="geometry">
            <mxRectangle width="29" height="40" as="alternateBounds" />
          </mxGeometry>
        </mxCell>
        <mxCell id="j7-8gCURON169_EvJywG-153" value="F1" style="shape=partialRectangle;html=1;whiteSpace=wrap;connectable=0;fillColor=#ffcccc;top=0;left=0;bottom=0;right=0;overflow=hidden;fontSize=16;strokeColor=#000000;strokeWidth=1;perimeterSpacing=0;shadow=0;sketch=0;swimlaneLine=1;" parent="j7-8gCURON169_EvJywG-6" vertex="1">
          <mxGeometry x="145" width="29" height="40" as="geometry">
            <mxRectangle width="29" height="40" as="alternateBounds" />
          </mxGeometry>
        </mxCell>
        <mxCell id="j7-8gCURON169_EvJywG-147" value="F2" style="shape=partialRectangle;html=1;whiteSpace=wrap;connectable=0;fillColor=#ffcccc;top=0;left=0;bottom=0;right=0;overflow=hidden;fontSize=16;strokeColor=#000000;strokeWidth=1;perimeterSpacing=0;shadow=0;sketch=0;swimlaneLine=1;" parent="j7-8gCURON169_EvJywG-6" vertex="1">
          <mxGeometry x="174" width="29" height="40" as="geometry">
            <mxRectangle width="29" height="40" as="alternateBounds" />
          </mxGeometry>
        </mxCell>
        <mxCell id="j7-8gCURON169_EvJywG-141" value="F3" style="shape=partialRectangle;html=1;whiteSpace=wrap;connectable=0;fillColor=#ffcccc;top=0;left=0;bottom=0;right=0;overflow=hidden;fontSize=16;strokeColor=#000000;strokeWidth=1;perimeterSpacing=0;shadow=0;sketch=0;swimlaneLine=1;" parent="j7-8gCURON169_EvJywG-6" vertex="1">
          <mxGeometry x="203" width="29" height="40" as="geometry">
            <mxRectangle width="29" height="40" as="alternateBounds" />
          </mxGeometry>
        </mxCell>
        <mxCell id="j7-8gCURON169_EvJywG-135" value="F4" style="shape=partialRectangle;html=1;whiteSpace=wrap;connectable=0;fillColor=#ffcccc;top=0;left=0;bottom=0;right=0;overflow=hidden;fontSize=16;strokeColor=#000000;strokeWidth=1;perimeterSpacing=0;shadow=0;sketch=0;swimlaneLine=1;" parent="j7-8gCURON169_EvJywG-6" vertex="1">
          <mxGeometry x="232" width="29" height="40" as="geometry">
            <mxRectangle width="29" height="40" as="alternateBounds" />
          </mxGeometry>
        </mxCell>
        <mxCell id="j7-8gCURON169_EvJywG-129" value="F5" style="shape=partialRectangle;html=1;whiteSpace=wrap;connectable=0;fillColor=#ffcccc;top=0;left=0;bottom=0;right=0;overflow=hidden;fontSize=16;strokeColor=#000000;strokeWidth=1;perimeterSpacing=0;shadow=0;sketch=0;swimlaneLine=1;" parent="j7-8gCURON169_EvJywG-6" vertex="1">
          <mxGeometry x="261" width="29" height="40" as="geometry">
            <mxRectangle width="29" height="40" as="alternateBounds" />
          </mxGeometry>
        </mxCell>
        <mxCell id="j7-8gCURON169_EvJywG-123" style="shape=partialRectangle;html=1;whiteSpace=wrap;connectable=0;fillColor=none;top=0;left=0;bottom=0;right=0;overflow=hidden;fontSize=16;strokeColor=#000000;strokeWidth=1;perimeterSpacing=0;shadow=0;sketch=0;swimlaneLine=1;" parent="j7-8gCURON169_EvJywG-6" vertex="1">
          <mxGeometry x="290" width="29" height="40" as="geometry">
            <mxRectangle width="29" height="40" as="alternateBounds" />
          </mxGeometry>
        </mxCell>
        <mxCell id="j7-8gCURON169_EvJywG-117" style="shape=partialRectangle;html=1;whiteSpace=wrap;connectable=0;fillColor=none;top=0;left=0;bottom=0;right=0;overflow=hidden;fontSize=16;strokeColor=#000000;strokeWidth=1;perimeterSpacing=0;shadow=0;sketch=0;swimlaneLine=1;" parent="j7-8gCURON169_EvJywG-6" vertex="1">
          <mxGeometry x="319" width="29" height="40" as="geometry">
            <mxRectangle width="29" height="40" as="alternateBounds" />
          </mxGeometry>
        </mxCell>
        <mxCell id="j7-8gCURON169_EvJywG-105" style="shape=partialRectangle;html=1;whiteSpace=wrap;connectable=0;fillColor=none;top=0;left=0;bottom=0;right=0;overflow=hidden;fontSize=16;strokeColor=#000000;strokeWidth=1;perimeterSpacing=0;shadow=0;sketch=0;swimlaneLine=1;" parent="j7-8gCURON169_EvJywG-6" vertex="1">
          <mxGeometry x="348" width="29" height="40" as="geometry">
            <mxRectangle width="29" height="40" as="alternateBounds" />
          </mxGeometry>
        </mxCell>
        <mxCell id="j7-8gCURON169_EvJywG-111" value="B5" style="shape=partialRectangle;html=1;whiteSpace=wrap;connectable=0;fillColor=#ffcccc;top=0;left=0;bottom=0;right=0;overflow=hidden;fontSize=16;rowspan=1;colspan=2;strokeColor=#000000;strokeWidth=1;perimeterSpacing=0;shadow=0;sketch=0;swimlaneLine=1;" parent="j7-8gCURON169_EvJywG-6" vertex="1">
          <mxGeometry x="377" width="58" height="40" as="geometry">
            <mxRectangle width="29" height="40" as="alternateBounds" />
          </mxGeometry>
        </mxCell>
        <mxCell id="j7-8gCURON169_EvJywG-93" style="shape=partialRectangle;html=1;whiteSpace=wrap;connectable=0;fillColor=#ffcccc;top=0;left=0;bottom=0;right=0;overflow=hidden;fontSize=16;strokeColor=#36393d;" parent="j7-8gCURON169_EvJywG-6" vertex="1" visible="0">
          <mxGeometry x="406" width="29" height="40" as="geometry">
            <mxRectangle width="29" height="40" as="alternateBounds" />
          </mxGeometry>
        </mxCell>
        <mxCell id="j7-8gCURON169_EvJywG-99" value="B4" style="shape=partialRectangle;html=1;whiteSpace=wrap;connectable=0;fillColor=#ffcccc;top=0;left=0;bottom=0;right=0;overflow=hidden;fontSize=16;rowspan=1;colspan=2;strokeColor=#000000;strokeWidth=1;perimeterSpacing=0;shadow=0;sketch=0;swimlaneLine=1;" parent="j7-8gCURON169_EvJywG-6" vertex="1">
          <mxGeometry x="435" width="59" height="40" as="geometry">
            <mxRectangle width="30" height="40" as="alternateBounds" />
          </mxGeometry>
        </mxCell>
        <mxCell id="j7-8gCURON169_EvJywG-81" style="shape=partialRectangle;html=1;whiteSpace=wrap;connectable=0;fillColor=#ffcccc;top=0;left=0;bottom=0;right=0;overflow=hidden;fontSize=16;strokeColor=#36393d;" parent="j7-8gCURON169_EvJywG-6" vertex="1" visible="0">
          <mxGeometry x="465" width="29" height="40" as="geometry">
            <mxRectangle width="29" height="40" as="alternateBounds" />
          </mxGeometry>
        </mxCell>
        <mxCell id="j7-8gCURON169_EvJywG-87" value="B3" style="shape=partialRectangle;html=1;whiteSpace=wrap;connectable=0;fillColor=#ffcccc;top=0;left=0;bottom=0;right=0;overflow=hidden;fontSize=16;rowspan=1;colspan=2;strokeColor=#000000;strokeWidth=1;perimeterSpacing=0;shadow=0;sketch=0;swimlaneLine=1;" parent="j7-8gCURON169_EvJywG-6" vertex="1">
          <mxGeometry x="494" width="58" height="40" as="geometry">
            <mxRectangle width="29" height="40" as="alternateBounds" />
          </mxGeometry>
        </mxCell>
        <mxCell id="j7-8gCURON169_EvJywG-69" style="shape=partialRectangle;html=1;whiteSpace=wrap;connectable=0;fillColor=#ffcccc;top=0;left=0;bottom=0;right=0;overflow=hidden;fontSize=16;strokeColor=#36393d;" parent="j7-8gCURON169_EvJywG-6" vertex="1" visible="0">
          <mxGeometry x="523" width="29" height="40" as="geometry">
            <mxRectangle width="29" height="40" as="alternateBounds" />
          </mxGeometry>
        </mxCell>
        <mxCell id="j7-8gCURON169_EvJywG-75" value="B2" style="shape=partialRectangle;html=1;whiteSpace=wrap;connectable=0;fillColor=#ffcccc;top=0;left=0;bottom=0;right=0;overflow=hidden;fontSize=16;rowspan=1;colspan=2;strokeColor=#000000;strokeWidth=1;perimeterSpacing=0;shadow=0;sketch=0;swimlaneLine=1;" parent="j7-8gCURON169_EvJywG-6" vertex="1">
          <mxGeometry x="552" width="58" height="40" as="geometry">
            <mxRectangle width="29" height="40" as="alternateBounds" />
          </mxGeometry>
        </mxCell>
        <mxCell id="j7-8gCURON169_EvJywG-57" style="shape=partialRectangle;html=1;whiteSpace=wrap;connectable=0;fillColor=#ffcccc;top=0;left=0;bottom=0;right=0;overflow=hidden;fontSize=16;strokeColor=#36393d;" parent="j7-8gCURON169_EvJywG-6" vertex="1" visible="0">
          <mxGeometry x="581" width="29" height="40" as="geometry">
            <mxRectangle width="29" height="40" as="alternateBounds" />
          </mxGeometry>
        </mxCell>
        <mxCell id="j7-8gCURON169_EvJywG-63" value="B1" style="shape=partialRectangle;html=1;whiteSpace=wrap;connectable=0;fillColor=#ffcccc;top=0;left=0;bottom=0;right=0;overflow=hidden;fontSize=16;rowspan=1;colspan=2;strokeColor=#000000;strokeWidth=1;perimeterSpacing=0;shadow=0;sketch=0;swimlaneLine=1;" parent="j7-8gCURON169_EvJywG-6" vertex="1">
          <mxGeometry x="610" width="58" height="40" as="geometry">
            <mxRectangle width="29" height="40" as="alternateBounds" />
          </mxGeometry>
        </mxCell>
        <mxCell id="j7-8gCURON169_EvJywG-51" style="shape=partialRectangle;html=1;whiteSpace=wrap;connectable=0;fillColor=none;top=0;left=0;bottom=0;right=0;overflow=hidden;fontSize=16;" parent="j7-8gCURON169_EvJywG-6" vertex="1" visible="0">
          <mxGeometry x="639" width="29" height="40" as="geometry">
            <mxRectangle width="29" height="40" as="alternateBounds" />
          </mxGeometry>
        </mxCell>
        <mxCell id="j7-8gCURON169_EvJywG-45" style="shape=partialRectangle;html=1;whiteSpace=wrap;connectable=0;fillColor=none;top=0;left=0;bottom=0;right=0;overflow=hidden;fontSize=16;strokeColor=#000000;strokeWidth=1;perimeterSpacing=0;shadow=0;sketch=0;swimlaneLine=1;" parent="j7-8gCURON169_EvJywG-6" vertex="1">
          <mxGeometry x="668" width="29" height="40" as="geometry">
            <mxRectangle width="29" height="40" as="alternateBounds" />
          </mxGeometry>
        </mxCell>
        <mxCell id="j7-8gCURON169_EvJywG-39" style="shape=partialRectangle;html=1;whiteSpace=wrap;connectable=0;fillColor=none;top=0;left=0;bottom=0;right=0;overflow=hidden;fontSize=16;strokeColor=#000000;strokeWidth=1;perimeterSpacing=0;shadow=0;sketch=0;swimlaneLine=1;" parent="j7-8gCURON169_EvJywG-6" vertex="1">
          <mxGeometry x="697" width="29" height="40" as="geometry">
            <mxRectangle width="29" height="40" as="alternateBounds" />
          </mxGeometry>
        </mxCell>
        <mxCell id="j7-8gCURON169_EvJywG-33" style="shape=partialRectangle;html=1;whiteSpace=wrap;connectable=0;fillColor=none;top=0;left=0;bottom=0;right=0;overflow=hidden;fontSize=16;strokeColor=#000000;strokeWidth=1;perimeterSpacing=0;shadow=0;sketch=0;swimlaneLine=1;" parent="j7-8gCURON169_EvJywG-6" vertex="1">
          <mxGeometry x="726" width="29" height="40" as="geometry">
            <mxRectangle width="29" height="40" as="alternateBounds" />
          </mxGeometry>
        </mxCell>
        <mxCell id="j7-8gCURON169_EvJywG-27" style="shape=partialRectangle;html=1;whiteSpace=wrap;connectable=0;fillColor=none;top=0;left=0;bottom=0;right=0;overflow=hidden;fontSize=16;strokeColor=#000000;strokeWidth=1;perimeterSpacing=0;shadow=0;sketch=0;swimlaneLine=1;" parent="j7-8gCURON169_EvJywG-6" vertex="1">
          <mxGeometry x="755" width="29" height="40" as="geometry">
            <mxRectangle width="29" height="40" as="alternateBounds" />
          </mxGeometry>
        </mxCell>
        <mxCell id="j7-8gCURON169_EvJywG-8" value="" style="shape=partialRectangle;html=1;whiteSpace=wrap;connectable=0;fillColor=none;top=0;left=0;bottom=0;right=0;overflow=hidden;fontSize=16;strokeColor=#000000;strokeWidth=1;perimeterSpacing=0;shadow=0;sketch=0;swimlaneLine=1;" parent="j7-8gCURON169_EvJywG-6" vertex="1">
          <mxGeometry x="784" width="29" height="40" as="geometry">
            <mxRectangle width="29" height="40" as="alternateBounds" />
          </mxGeometry>
        </mxCell>
        <mxCell id="j7-8gCURON169_EvJywG-234" style="shape=partialRectangle;html=1;whiteSpace=wrap;connectable=0;fillColor=none;top=0;left=0;bottom=0;right=0;overflow=hidden;fontSize=16;strokeColor=#000000;strokeWidth=1;perimeterSpacing=0;shadow=0;sketch=0;swimlaneLine=1;" parent="j7-8gCURON169_EvJywG-6" vertex="1">
          <mxGeometry x="813" width="29" height="40" as="geometry">
            <mxRectangle width="29" height="40" as="alternateBounds" />
          </mxGeometry>
        </mxCell>
        <mxCell id="j7-8gCURON169_EvJywG-228" style="shape=partialRectangle;html=1;whiteSpace=wrap;connectable=0;fillColor=none;top=0;left=0;bottom=0;right=0;overflow=hidden;fontSize=16;strokeColor=#000000;strokeWidth=1;perimeterSpacing=0;shadow=0;sketch=0;swimlaneLine=1;" parent="j7-8gCURON169_EvJywG-6" vertex="1">
          <mxGeometry x="842" width="29" height="40" as="geometry">
            <mxRectangle width="29" height="40" as="alternateBounds" />
          </mxGeometry>
        </mxCell>
        <mxCell id="j7-8gCURON169_EvJywG-9" value="" style="shape=partialRectangle;html=1;whiteSpace=wrap;connectable=0;fillColor=none;top=0;left=0;bottom=0;right=0;overflow=hidden;fontSize=16;strokeColor=#000000;strokeWidth=1;perimeterSpacing=0;shadow=0;sketch=0;swimlaneLine=1;" parent="j7-8gCURON169_EvJywG-6" vertex="1">
          <mxGeometry x="871" width="29" height="40" as="geometry">
            <mxRectangle width="29" height="40" as="alternateBounds" />
          </mxGeometry>
        </mxCell>
        <mxCell id="j7-8gCURON169_EvJywG-10" value="" style="shape=tableRow;horizontal=0;startSize=0;swimlaneHead=0;swimlaneBody=0;top=0;left=0;bottom=0;right=0;collapsible=0;dropTarget=0;fillColor=none;points=[[0,0.5],[1,0.5]];portConstraint=eastwest;fontSize=16;strokeColor=#000000;strokeWidth=1;perimeterSpacing=0;shadow=0;sketch=0;swimlaneLine=1;" parent="j7-8gCURON169_EvJywG-1" vertex="1">
          <mxGeometry y="80" width="900" height="40" as="geometry" />
        </mxCell>
        <mxCell id="j7-8gCURON169_EvJywG-11" value="N4" style="shape=partialRectangle;html=1;whiteSpace=wrap;connectable=0;fillColor=#4D4D4D;top=0;left=0;bottom=0;right=0;overflow=hidden;fontColor=#FFFFFF;fontSize=16;strokeColor=#000000;strokeWidth=1;perimeterSpacing=0;shadow=0;sketch=0;swimlaneLine=1;" parent="j7-8gCURON169_EvJywG-10" vertex="1">
          <mxGeometry width="29" height="40" as="geometry">
            <mxRectangle width="29" height="40" as="alternateBounds" />
          </mxGeometry>
        </mxCell>
        <mxCell id="j7-8gCURON169_EvJywG-178" style="shape=partialRectangle;html=1;whiteSpace=wrap;connectable=0;fillColor=none;top=0;left=0;bottom=0;right=0;overflow=hidden;fontSize=16;strokeColor=#000000;strokeWidth=1;perimeterSpacing=0;shadow=0;sketch=0;swimlaneLine=1;" parent="j7-8gCURON169_EvJywG-10" vertex="1">
          <mxGeometry x="29" width="29" height="40" as="geometry">
            <mxRectangle width="29" height="40" as="alternateBounds" />
          </mxGeometry>
        </mxCell>
        <mxCell id="j7-8gCURON169_EvJywG-172" style="shape=partialRectangle;html=1;whiteSpace=wrap;connectable=0;fillColor=none;top=0;left=0;bottom=0;right=0;overflow=hidden;fontSize=16;strokeColor=#000000;strokeWidth=1;perimeterSpacing=0;shadow=0;sketch=0;swimlaneLine=1;" parent="j7-8gCURON169_EvJywG-10" vertex="1">
          <mxGeometry x="58" width="29" height="40" as="geometry">
            <mxRectangle width="29" height="40" as="alternateBounds" />
          </mxGeometry>
        </mxCell>
        <mxCell id="j7-8gCURON169_EvJywG-166" style="shape=partialRectangle;html=1;whiteSpace=wrap;connectable=0;fillColor=none;top=0;left=0;bottom=0;right=0;overflow=hidden;fontSize=16;strokeColor=#000000;strokeWidth=1;perimeterSpacing=0;shadow=0;sketch=0;swimlaneLine=1;" parent="j7-8gCURON169_EvJywG-10" vertex="1">
          <mxGeometry x="87" width="29" height="40" as="geometry">
            <mxRectangle width="29" height="40" as="alternateBounds" />
          </mxGeometry>
        </mxCell>
        <mxCell id="j7-8gCURON169_EvJywG-160" value="F1" style="shape=partialRectangle;html=1;whiteSpace=wrap;connectable=0;fillColor=#cdeb8b;top=0;left=0;bottom=0;right=0;overflow=hidden;fontSize=16;strokeColor=#000000;strokeWidth=1;perimeterSpacing=0;shadow=0;sketch=0;swimlaneLine=1;" parent="j7-8gCURON169_EvJywG-10" vertex="1">
          <mxGeometry x="116" width="29" height="40" as="geometry">
            <mxRectangle width="29" height="40" as="alternateBounds" />
          </mxGeometry>
        </mxCell>
        <mxCell id="j7-8gCURON169_EvJywG-154" value="F2" style="shape=partialRectangle;html=1;whiteSpace=wrap;connectable=0;fillColor=#cdeb8b;top=0;left=0;bottom=0;right=0;overflow=hidden;fontSize=16;strokeColor=#000000;strokeWidth=1;perimeterSpacing=0;shadow=0;sketch=0;swimlaneLine=1;" parent="j7-8gCURON169_EvJywG-10" vertex="1">
          <mxGeometry x="145" width="29" height="40" as="geometry">
            <mxRectangle width="29" height="40" as="alternateBounds" />
          </mxGeometry>
        </mxCell>
        <mxCell id="j7-8gCURON169_EvJywG-148" value="F3" style="shape=partialRectangle;html=1;whiteSpace=wrap;connectable=0;fillColor=#cdeb8b;top=0;left=0;bottom=0;right=0;overflow=hidden;fontSize=16;strokeColor=#000000;strokeWidth=1;perimeterSpacing=0;shadow=0;sketch=0;swimlaneLine=1;" parent="j7-8gCURON169_EvJywG-10" vertex="1">
          <mxGeometry x="174" width="29" height="40" as="geometry">
            <mxRectangle width="29" height="40" as="alternateBounds" />
          </mxGeometry>
        </mxCell>
        <mxCell id="j7-8gCURON169_EvJywG-142" value="F4" style="shape=partialRectangle;html=1;whiteSpace=wrap;connectable=0;fillColor=#cdeb8b;top=0;left=0;bottom=0;right=0;overflow=hidden;fontSize=16;strokeColor=#000000;strokeWidth=1;perimeterSpacing=0;shadow=0;sketch=0;swimlaneLine=1;" parent="j7-8gCURON169_EvJywG-10" vertex="1">
          <mxGeometry x="203" width="29" height="40" as="geometry">
            <mxRectangle width="29" height="40" as="alternateBounds" />
          </mxGeometry>
        </mxCell>
        <mxCell id="j7-8gCURON169_EvJywG-136" value="F5" style="shape=partialRectangle;html=1;whiteSpace=wrap;connectable=0;fillColor=#cdeb8b;top=0;left=0;bottom=0;right=0;overflow=hidden;fontSize=16;strokeColor=#000000;strokeWidth=1;perimeterSpacing=0;shadow=0;sketch=0;swimlaneLine=1;" parent="j7-8gCURON169_EvJywG-10" vertex="1">
          <mxGeometry x="232" width="29" height="40" as="geometry">
            <mxRectangle width="29" height="40" as="alternateBounds" />
          </mxGeometry>
        </mxCell>
        <mxCell id="j7-8gCURON169_EvJywG-130" style="shape=partialRectangle;html=1;whiteSpace=wrap;connectable=0;fillColor=none;top=0;left=0;bottom=0;right=0;overflow=hidden;fontSize=16;strokeColor=#000000;strokeWidth=1;perimeterSpacing=0;shadow=0;sketch=0;swimlaneLine=1;" parent="j7-8gCURON169_EvJywG-10" vertex="1">
          <mxGeometry x="261" width="29" height="40" as="geometry">
            <mxRectangle width="29" height="40" as="alternateBounds" />
          </mxGeometry>
        </mxCell>
        <mxCell id="j7-8gCURON169_EvJywG-124" style="shape=partialRectangle;html=1;whiteSpace=wrap;connectable=0;fillColor=none;top=0;left=0;bottom=0;right=0;overflow=hidden;fontSize=16;strokeColor=#000000;strokeWidth=1;perimeterSpacing=0;shadow=0;sketch=0;swimlaneLine=1;" parent="j7-8gCURON169_EvJywG-10" vertex="1">
          <mxGeometry x="290" width="29" height="40" as="geometry">
            <mxRectangle width="29" height="40" as="alternateBounds" />
          </mxGeometry>
        </mxCell>
        <mxCell id="j7-8gCURON169_EvJywG-118" style="shape=partialRectangle;html=1;whiteSpace=wrap;connectable=0;fillColor=none;top=0;left=0;bottom=0;right=0;overflow=hidden;fontSize=16;strokeColor=#000000;strokeWidth=1;perimeterSpacing=0;shadow=0;sketch=0;swimlaneLine=1;" parent="j7-8gCURON169_EvJywG-10" vertex="1">
          <mxGeometry x="319" width="29" height="40" as="geometry">
            <mxRectangle width="29" height="40" as="alternateBounds" />
          </mxGeometry>
        </mxCell>
        <mxCell id="j7-8gCURON169_EvJywG-112" style="shape=partialRectangle;html=1;whiteSpace=wrap;connectable=0;fillColor=none;top=0;left=0;bottom=0;right=0;overflow=hidden;fontSize=16;strokeColor=#000000;strokeWidth=1;perimeterSpacing=0;shadow=0;sketch=0;swimlaneLine=1;" parent="j7-8gCURON169_EvJywG-10" vertex="1">
          <mxGeometry x="348" width="29" height="40" as="geometry">
            <mxRectangle width="29" height="40" as="alternateBounds" />
          </mxGeometry>
        </mxCell>
        <mxCell id="j7-8gCURON169_EvJywG-100" style="shape=partialRectangle;html=1;whiteSpace=wrap;connectable=0;fillColor=none;top=0;left=0;bottom=0;right=0;overflow=hidden;fontSize=16;strokeColor=#000000;strokeWidth=1;perimeterSpacing=0;shadow=0;sketch=0;swimlaneLine=1;" parent="j7-8gCURON169_EvJywG-10" vertex="1">
          <mxGeometry x="377" width="29" height="40" as="geometry">
            <mxRectangle width="29" height="40" as="alternateBounds" />
          </mxGeometry>
        </mxCell>
        <mxCell id="j7-8gCURON169_EvJywG-88" style="shape=partialRectangle;html=1;whiteSpace=wrap;connectable=0;fillColor=none;top=0;left=0;bottom=0;right=0;overflow=hidden;fontSize=16;strokeColor=#000000;strokeWidth=1;perimeterSpacing=0;shadow=0;sketch=0;swimlaneLine=1;" parent="j7-8gCURON169_EvJywG-10" vertex="1">
          <mxGeometry x="406" width="29" height="40" as="geometry">
            <mxRectangle width="29" height="40" as="alternateBounds" />
          </mxGeometry>
        </mxCell>
        <mxCell id="j7-8gCURON169_EvJywG-106" value="B5" style="shape=partialRectangle;html=1;whiteSpace=wrap;connectable=0;fillColor=#cdeb8b;top=0;left=0;bottom=0;right=0;overflow=hidden;fontSize=16;rowspan=1;colspan=2;strokeColor=#000000;strokeWidth=1;perimeterSpacing=0;shadow=0;sketch=0;swimlaneLine=1;" parent="j7-8gCURON169_EvJywG-10" vertex="1">
          <mxGeometry x="435" width="59" height="40" as="geometry">
            <mxRectangle width="30" height="40" as="alternateBounds" />
          </mxGeometry>
        </mxCell>
        <mxCell id="j7-8gCURON169_EvJywG-76" style="shape=partialRectangle;html=1;whiteSpace=wrap;connectable=0;fillColor=#cdeb8b;top=0;left=0;bottom=0;right=0;overflow=hidden;fontSize=16;strokeColor=#36393d;" parent="j7-8gCURON169_EvJywG-10" vertex="1" visible="0">
          <mxGeometry x="465" width="29" height="40" as="geometry">
            <mxRectangle width="29" height="40" as="alternateBounds" />
          </mxGeometry>
        </mxCell>
        <mxCell id="j7-8gCURON169_EvJywG-94" value="B4" style="shape=partialRectangle;html=1;whiteSpace=wrap;connectable=0;fillColor=#cdeb8b;top=0;left=0;bottom=0;right=0;overflow=hidden;fontSize=16;rowspan=1;colspan=2;strokeColor=#000000;strokeWidth=1;perimeterSpacing=0;shadow=0;sketch=0;swimlaneLine=1;" parent="j7-8gCURON169_EvJywG-10" vertex="1">
          <mxGeometry x="494" width="58" height="40" as="geometry">
            <mxRectangle width="29" height="40" as="alternateBounds" />
          </mxGeometry>
        </mxCell>
        <mxCell id="j7-8gCURON169_EvJywG-64" style="shape=partialRectangle;html=1;whiteSpace=wrap;connectable=0;fillColor=#cdeb8b;top=0;left=0;bottom=0;right=0;overflow=hidden;fontSize=16;strokeColor=#36393d;" parent="j7-8gCURON169_EvJywG-10" vertex="1" visible="0">
          <mxGeometry x="523" width="29" height="40" as="geometry">
            <mxRectangle width="29" height="40" as="alternateBounds" />
          </mxGeometry>
        </mxCell>
        <mxCell id="j7-8gCURON169_EvJywG-82" value="B3" style="shape=partialRectangle;html=1;whiteSpace=wrap;connectable=0;fillColor=#cdeb8b;top=0;left=0;bottom=0;right=0;overflow=hidden;fontSize=16;rowspan=1;colspan=2;strokeColor=#000000;strokeWidth=1;perimeterSpacing=0;shadow=0;sketch=0;swimlaneLine=1;" parent="j7-8gCURON169_EvJywG-10" vertex="1">
          <mxGeometry x="552" width="58" height="40" as="geometry">
            <mxRectangle width="29" height="40" as="alternateBounds" />
          </mxGeometry>
        </mxCell>
        <mxCell id="j7-8gCURON169_EvJywG-52" style="shape=partialRectangle;html=1;whiteSpace=wrap;connectable=0;fillColor=#cdeb8b;top=0;left=0;bottom=0;right=0;overflow=hidden;fontSize=16;strokeColor=#36393d;" parent="j7-8gCURON169_EvJywG-10" vertex="1" visible="0">
          <mxGeometry x="581" width="29" height="40" as="geometry">
            <mxRectangle width="29" height="40" as="alternateBounds" />
          </mxGeometry>
        </mxCell>
        <mxCell id="j7-8gCURON169_EvJywG-70" value="B2" style="shape=partialRectangle;html=1;whiteSpace=wrap;connectable=0;fillColor=#cdeb8b;top=0;left=0;bottom=0;right=0;overflow=hidden;fontSize=16;rowspan=1;colspan=2;strokeColor=#000000;strokeWidth=1;perimeterSpacing=0;shadow=0;sketch=0;swimlaneLine=1;" parent="j7-8gCURON169_EvJywG-10" vertex="1">
          <mxGeometry x="610" width="58" height="40" as="geometry">
            <mxRectangle width="29" height="40" as="alternateBounds" />
          </mxGeometry>
        </mxCell>
        <mxCell id="j7-8gCURON169_EvJywG-46" style="shape=partialRectangle;html=1;whiteSpace=wrap;connectable=0;fillColor=#cdeb8b;top=0;left=0;bottom=0;right=0;overflow=hidden;fontSize=16;strokeColor=#36393d;" parent="j7-8gCURON169_EvJywG-10" vertex="1" visible="0">
          <mxGeometry x="639" width="29" height="40" as="geometry">
            <mxRectangle width="29" height="40" as="alternateBounds" />
          </mxGeometry>
        </mxCell>
        <mxCell id="j7-8gCURON169_EvJywG-58" value="B1" style="shape=partialRectangle;html=1;whiteSpace=wrap;connectable=0;fillColor=#cdeb8b;top=0;left=0;bottom=0;right=0;overflow=hidden;fontSize=16;rowspan=1;colspan=2;strokeColor=#000000;strokeWidth=1;perimeterSpacing=0;shadow=0;sketch=0;swimlaneLine=1;" parent="j7-8gCURON169_EvJywG-10" vertex="1">
          <mxGeometry x="668" width="58" height="40" as="geometry">
            <mxRectangle width="29" height="40" as="alternateBounds" />
          </mxGeometry>
        </mxCell>
        <mxCell id="j7-8gCURON169_EvJywG-40" style="shape=partialRectangle;html=1;whiteSpace=wrap;connectable=0;fillColor=none;top=0;left=0;bottom=0;right=0;overflow=hidden;fontSize=16;" parent="j7-8gCURON169_EvJywG-10" vertex="1" visible="0">
          <mxGeometry x="697" width="29" height="40" as="geometry">
            <mxRectangle width="29" height="40" as="alternateBounds" />
          </mxGeometry>
        </mxCell>
        <mxCell id="j7-8gCURON169_EvJywG-34" style="shape=partialRectangle;html=1;whiteSpace=wrap;connectable=0;fillColor=none;top=0;left=0;bottom=0;right=0;overflow=hidden;fontSize=16;strokeColor=#000000;strokeWidth=1;perimeterSpacing=0;shadow=0;sketch=0;swimlaneLine=1;" parent="j7-8gCURON169_EvJywG-10" vertex="1">
          <mxGeometry x="726" width="29" height="40" as="geometry">
            <mxRectangle width="29" height="40" as="alternateBounds" />
          </mxGeometry>
        </mxCell>
        <mxCell id="j7-8gCURON169_EvJywG-28" style="shape=partialRectangle;html=1;whiteSpace=wrap;connectable=0;fillColor=none;top=0;left=0;bottom=0;right=0;overflow=hidden;fontSize=16;strokeColor=#000000;strokeWidth=1;perimeterSpacing=0;shadow=0;sketch=0;swimlaneLine=1;" parent="j7-8gCURON169_EvJywG-10" vertex="1">
          <mxGeometry x="755" width="29" height="40" as="geometry">
            <mxRectangle width="29" height="40" as="alternateBounds" />
          </mxGeometry>
        </mxCell>
        <mxCell id="j7-8gCURON169_EvJywG-12" value="" style="shape=partialRectangle;html=1;whiteSpace=wrap;connectable=0;fillColor=none;top=0;left=0;bottom=0;right=0;overflow=hidden;fontSize=16;strokeColor=#000000;strokeWidth=1;perimeterSpacing=0;shadow=0;sketch=0;swimlaneLine=1;" parent="j7-8gCURON169_EvJywG-10" vertex="1">
          <mxGeometry x="784" width="29" height="40" as="geometry">
            <mxRectangle width="29" height="40" as="alternateBounds" />
          </mxGeometry>
        </mxCell>
        <mxCell id="j7-8gCURON169_EvJywG-235" style="shape=partialRectangle;html=1;whiteSpace=wrap;connectable=0;fillColor=none;top=0;left=0;bottom=0;right=0;overflow=hidden;fontSize=16;strokeColor=#000000;strokeWidth=1;perimeterSpacing=0;shadow=0;sketch=0;swimlaneLine=1;" parent="j7-8gCURON169_EvJywG-10" vertex="1">
          <mxGeometry x="813" width="29" height="40" as="geometry">
            <mxRectangle width="29" height="40" as="alternateBounds" />
          </mxGeometry>
        </mxCell>
        <mxCell id="j7-8gCURON169_EvJywG-229" style="shape=partialRectangle;html=1;whiteSpace=wrap;connectable=0;fillColor=none;top=0;left=0;bottom=0;right=0;overflow=hidden;fontSize=16;strokeColor=#000000;strokeWidth=1;perimeterSpacing=0;shadow=0;sketch=0;swimlaneLine=1;" parent="j7-8gCURON169_EvJywG-10" vertex="1">
          <mxGeometry x="842" width="29" height="40" as="geometry">
            <mxRectangle width="29" height="40" as="alternateBounds" />
          </mxGeometry>
        </mxCell>
        <mxCell id="j7-8gCURON169_EvJywG-13" value="" style="shape=partialRectangle;html=1;whiteSpace=wrap;connectable=0;fillColor=none;top=0;left=0;bottom=0;right=0;overflow=hidden;pointerEvents=1;fontSize=16;strokeColor=#000000;strokeWidth=1;perimeterSpacing=0;shadow=0;sketch=0;swimlaneLine=1;" parent="j7-8gCURON169_EvJywG-10" vertex="1">
          <mxGeometry x="871" width="29" height="40" as="geometry">
            <mxRectangle width="29" height="40" as="alternateBounds" />
          </mxGeometry>
        </mxCell>
        <mxCell id="j7-8gCURON169_EvJywG-14" style="shape=tableRow;horizontal=0;startSize=0;swimlaneHead=0;swimlaneBody=0;top=0;left=0;bottom=0;right=0;collapsible=0;dropTarget=0;fillColor=none;points=[[0,0.5],[1,0.5]];portConstraint=eastwest;fontSize=16;strokeColor=#000000;strokeWidth=1;perimeterSpacing=0;shadow=0;sketch=0;swimlaneLine=1;" parent="j7-8gCURON169_EvJywG-1" vertex="1">
          <mxGeometry y="120" width="900" height="40" as="geometry" />
        </mxCell>
        <mxCell id="j7-8gCURON169_EvJywG-15" value="N3" style="shape=partialRectangle;html=1;whiteSpace=wrap;connectable=0;fillColor=#4D4D4D;top=0;left=0;bottom=0;right=0;overflow=hidden;fontColor=#FFFFFF;fontSize=16;strokeColor=#000000;strokeWidth=1;perimeterSpacing=0;shadow=0;sketch=0;swimlaneLine=1;" parent="j7-8gCURON169_EvJywG-14" vertex="1">
          <mxGeometry width="29" height="40" as="geometry">
            <mxRectangle width="29" height="40" as="alternateBounds" />
          </mxGeometry>
        </mxCell>
        <mxCell id="j7-8gCURON169_EvJywG-179" style="shape=partialRectangle;html=1;whiteSpace=wrap;connectable=0;fillColor=none;top=0;left=0;bottom=0;right=0;overflow=hidden;fontSize=16;strokeColor=#000000;strokeWidth=1;perimeterSpacing=0;shadow=0;sketch=0;swimlaneLine=1;" parent="j7-8gCURON169_EvJywG-14" vertex="1">
          <mxGeometry x="29" width="29" height="40" as="geometry">
            <mxRectangle width="29" height="40" as="alternateBounds" />
          </mxGeometry>
        </mxCell>
        <mxCell id="j7-8gCURON169_EvJywG-173" style="shape=partialRectangle;html=1;whiteSpace=wrap;connectable=0;fillColor=none;top=0;left=0;bottom=0;right=0;overflow=hidden;fontSize=16;strokeColor=#000000;strokeWidth=1;perimeterSpacing=0;shadow=0;sketch=0;swimlaneLine=1;" parent="j7-8gCURON169_EvJywG-14" vertex="1">
          <mxGeometry x="58" width="29" height="40" as="geometry">
            <mxRectangle width="29" height="40" as="alternateBounds" />
          </mxGeometry>
        </mxCell>
        <mxCell id="j7-8gCURON169_EvJywG-167" value="F1" style="shape=partialRectangle;html=1;whiteSpace=wrap;connectable=0;fillColor=#ffff88;top=0;left=0;bottom=0;right=0;overflow=hidden;fontSize=16;strokeColor=#000000;strokeWidth=1;perimeterSpacing=0;shadow=0;sketch=0;swimlaneLine=1;" parent="j7-8gCURON169_EvJywG-14" vertex="1">
          <mxGeometry x="87" width="29" height="40" as="geometry">
            <mxRectangle width="29" height="40" as="alternateBounds" />
          </mxGeometry>
        </mxCell>
        <mxCell id="j7-8gCURON169_EvJywG-161" value="F2" style="shape=partialRectangle;html=1;whiteSpace=wrap;connectable=0;fillColor=#ffff88;top=0;left=0;bottom=0;right=0;overflow=hidden;fontSize=16;strokeColor=#000000;strokeWidth=1;perimeterSpacing=0;shadow=0;sketch=0;swimlaneLine=1;" parent="j7-8gCURON169_EvJywG-14" vertex="1">
          <mxGeometry x="116" width="29" height="40" as="geometry">
            <mxRectangle width="29" height="40" as="alternateBounds" />
          </mxGeometry>
        </mxCell>
        <mxCell id="j7-8gCURON169_EvJywG-155" value="F3" style="shape=partialRectangle;html=1;whiteSpace=wrap;connectable=0;fillColor=#ffff88;top=0;left=0;bottom=0;right=0;overflow=hidden;fontSize=16;strokeColor=#000000;strokeWidth=1;perimeterSpacing=0;shadow=0;sketch=0;swimlaneLine=1;" parent="j7-8gCURON169_EvJywG-14" vertex="1">
          <mxGeometry x="145" width="29" height="40" as="geometry">
            <mxRectangle width="29" height="40" as="alternateBounds" />
          </mxGeometry>
        </mxCell>
        <mxCell id="j7-8gCURON169_EvJywG-149" value="F4" style="shape=partialRectangle;html=1;whiteSpace=wrap;connectable=0;fillColor=#ffff88;top=0;left=0;bottom=0;right=0;overflow=hidden;fontSize=16;strokeColor=#000000;strokeWidth=1;perimeterSpacing=0;shadow=0;sketch=0;swimlaneLine=1;" parent="j7-8gCURON169_EvJywG-14" vertex="1">
          <mxGeometry x="174" width="29" height="40" as="geometry">
            <mxRectangle width="29" height="40" as="alternateBounds" />
          </mxGeometry>
        </mxCell>
        <mxCell id="j7-8gCURON169_EvJywG-143" value="F5" style="shape=partialRectangle;html=1;whiteSpace=wrap;connectable=0;fillColor=#ffff88;top=0;left=0;bottom=0;right=0;overflow=hidden;fontSize=16;strokeColor=#000000;strokeWidth=1;perimeterSpacing=0;shadow=0;sketch=0;swimlaneLine=1;" parent="j7-8gCURON169_EvJywG-14" vertex="1">
          <mxGeometry x="203" width="29" height="40" as="geometry">
            <mxRectangle width="29" height="40" as="alternateBounds" />
          </mxGeometry>
        </mxCell>
        <mxCell id="j7-8gCURON169_EvJywG-137" style="shape=partialRectangle;html=1;whiteSpace=wrap;connectable=0;fillColor=none;top=0;left=0;bottom=0;right=0;overflow=hidden;fontSize=16;strokeColor=#000000;strokeWidth=1;perimeterSpacing=0;shadow=0;sketch=0;swimlaneLine=1;" parent="j7-8gCURON169_EvJywG-14" vertex="1">
          <mxGeometry x="232" width="29" height="40" as="geometry">
            <mxRectangle width="29" height="40" as="alternateBounds" />
          </mxGeometry>
        </mxCell>
        <mxCell id="j7-8gCURON169_EvJywG-131" style="shape=partialRectangle;html=1;whiteSpace=wrap;connectable=0;fillColor=none;top=0;left=0;bottom=0;right=0;overflow=hidden;fontSize=16;strokeColor=#000000;strokeWidth=1;perimeterSpacing=0;shadow=0;sketch=0;swimlaneLine=1;" parent="j7-8gCURON169_EvJywG-14" vertex="1">
          <mxGeometry x="261" width="29" height="40" as="geometry">
            <mxRectangle width="29" height="40" as="alternateBounds" />
          </mxGeometry>
        </mxCell>
        <mxCell id="j7-8gCURON169_EvJywG-125" style="shape=partialRectangle;html=1;whiteSpace=wrap;connectable=0;fillColor=none;top=0;left=0;bottom=0;right=0;overflow=hidden;fontSize=16;strokeColor=#000000;strokeWidth=1;perimeterSpacing=0;shadow=0;sketch=0;swimlaneLine=1;" parent="j7-8gCURON169_EvJywG-14" vertex="1">
          <mxGeometry x="290" width="29" height="40" as="geometry">
            <mxRectangle width="29" height="40" as="alternateBounds" />
          </mxGeometry>
        </mxCell>
        <mxCell id="j7-8gCURON169_EvJywG-119" style="shape=partialRectangle;html=1;whiteSpace=wrap;connectable=0;fillColor=none;top=0;left=0;bottom=0;right=0;overflow=hidden;fontSize=16;strokeColor=#000000;strokeWidth=1;perimeterSpacing=0;shadow=0;sketch=0;swimlaneLine=1;" parent="j7-8gCURON169_EvJywG-14" vertex="1">
          <mxGeometry x="319" width="29" height="40" as="geometry">
            <mxRectangle width="29" height="40" as="alternateBounds" />
          </mxGeometry>
        </mxCell>
        <mxCell id="j7-8gCURON169_EvJywG-113" style="shape=partialRectangle;html=1;whiteSpace=wrap;connectable=0;fillColor=none;top=0;left=0;bottom=0;right=0;overflow=hidden;fontSize=16;strokeColor=#000000;strokeWidth=1;perimeterSpacing=0;shadow=0;sketch=0;swimlaneLine=1;" parent="j7-8gCURON169_EvJywG-14" vertex="1">
          <mxGeometry x="348" width="29" height="40" as="geometry">
            <mxRectangle width="29" height="40" as="alternateBounds" />
          </mxGeometry>
        </mxCell>
        <mxCell id="j7-8gCURON169_EvJywG-107" style="shape=partialRectangle;html=1;whiteSpace=wrap;connectable=0;fillColor=none;top=0;left=0;bottom=0;right=0;overflow=hidden;fontSize=16;strokeColor=#000000;strokeWidth=1;perimeterSpacing=0;shadow=0;sketch=0;swimlaneLine=1;" parent="j7-8gCURON169_EvJywG-14" vertex="1">
          <mxGeometry x="377" width="29" height="40" as="geometry">
            <mxRectangle width="29" height="40" as="alternateBounds" />
          </mxGeometry>
        </mxCell>
        <mxCell id="j7-8gCURON169_EvJywG-95" style="shape=partialRectangle;html=1;whiteSpace=wrap;connectable=0;fillColor=none;top=0;left=0;bottom=0;right=0;overflow=hidden;fontSize=16;strokeColor=#000000;strokeWidth=1;perimeterSpacing=0;shadow=0;sketch=0;swimlaneLine=1;" parent="j7-8gCURON169_EvJywG-14" vertex="1">
          <mxGeometry x="406" width="29" height="40" as="geometry">
            <mxRectangle width="29" height="40" as="alternateBounds" />
          </mxGeometry>
        </mxCell>
        <mxCell id="j7-8gCURON169_EvJywG-83" style="shape=partialRectangle;html=1;whiteSpace=wrap;connectable=0;fillColor=none;top=0;left=0;bottom=0;right=0;overflow=hidden;fontSize=16;strokeColor=#000000;strokeWidth=1;perimeterSpacing=0;shadow=0;sketch=0;swimlaneLine=1;" parent="j7-8gCURON169_EvJywG-14" vertex="1">
          <mxGeometry x="435" width="30" height="40" as="geometry">
            <mxRectangle width="30" height="40" as="alternateBounds" />
          </mxGeometry>
        </mxCell>
        <mxCell id="j7-8gCURON169_EvJywG-71" style="shape=partialRectangle;html=1;whiteSpace=wrap;connectable=0;fillColor=none;top=0;left=0;bottom=0;right=0;overflow=hidden;fontSize=16;strokeColor=#000000;strokeWidth=1;perimeterSpacing=0;shadow=0;sketch=0;swimlaneLine=1;" parent="j7-8gCURON169_EvJywG-14" vertex="1">
          <mxGeometry x="465" width="29" height="40" as="geometry">
            <mxRectangle width="29" height="40" as="alternateBounds" />
          </mxGeometry>
        </mxCell>
        <mxCell id="j7-8gCURON169_EvJywG-101" value="B5" style="shape=partialRectangle;html=1;whiteSpace=wrap;connectable=0;fillColor=#ffff88;top=0;left=0;bottom=0;right=0;overflow=hidden;fontSize=16;rowspan=1;colspan=2;strokeColor=#000000;strokeWidth=1;perimeterSpacing=0;shadow=0;sketch=0;swimlaneLine=1;" parent="j7-8gCURON169_EvJywG-14" vertex="1">
          <mxGeometry x="494" width="58" height="40" as="geometry">
            <mxRectangle width="29" height="40" as="alternateBounds" />
          </mxGeometry>
        </mxCell>
        <mxCell id="j7-8gCURON169_EvJywG-59" style="shape=partialRectangle;html=1;whiteSpace=wrap;connectable=0;fillColor=#cce5ff;top=0;left=0;bottom=0;right=0;overflow=hidden;fontSize=16;strokeColor=#36393d;" parent="j7-8gCURON169_EvJywG-14" vertex="1" visible="0">
          <mxGeometry x="523" width="29" height="40" as="geometry">
            <mxRectangle width="29" height="40" as="alternateBounds" />
          </mxGeometry>
        </mxCell>
        <mxCell id="j7-8gCURON169_EvJywG-89" value="B4" style="shape=partialRectangle;html=1;whiteSpace=wrap;connectable=0;fillColor=#ffff88;top=0;left=0;bottom=0;right=0;overflow=hidden;fontSize=16;rowspan=1;colspan=2;strokeColor=#000000;strokeWidth=1;perimeterSpacing=0;shadow=0;sketch=0;swimlaneLine=1;" parent="j7-8gCURON169_EvJywG-14" vertex="1">
          <mxGeometry x="552" width="58" height="40" as="geometry">
            <mxRectangle width="29" height="40" as="alternateBounds" />
          </mxGeometry>
        </mxCell>
        <mxCell id="j7-8gCURON169_EvJywG-47" style="shape=partialRectangle;html=1;whiteSpace=wrap;connectable=0;fillColor=#cce5ff;top=0;left=0;bottom=0;right=0;overflow=hidden;fontSize=16;strokeColor=#36393d;" parent="j7-8gCURON169_EvJywG-14" vertex="1" visible="0">
          <mxGeometry x="581" width="29" height="40" as="geometry">
            <mxRectangle width="29" height="40" as="alternateBounds" />
          </mxGeometry>
        </mxCell>
        <mxCell id="j7-8gCURON169_EvJywG-77" value="B3" style="shape=partialRectangle;html=1;whiteSpace=wrap;connectable=0;fillColor=#ffff88;top=0;left=0;bottom=0;right=0;overflow=hidden;fontSize=16;rowspan=1;colspan=2;strokeColor=#000000;strokeWidth=1;perimeterSpacing=0;shadow=0;sketch=0;swimlaneLine=1;" parent="j7-8gCURON169_EvJywG-14" vertex="1">
          <mxGeometry x="610" width="58" height="40" as="geometry">
            <mxRectangle width="29" height="40" as="alternateBounds" />
          </mxGeometry>
        </mxCell>
        <mxCell id="j7-8gCURON169_EvJywG-41" style="shape=partialRectangle;html=1;whiteSpace=wrap;connectable=0;fillColor=#cce5ff;top=0;left=0;bottom=0;right=0;overflow=hidden;fontSize=16;strokeColor=#36393d;" parent="j7-8gCURON169_EvJywG-14" vertex="1" visible="0">
          <mxGeometry x="639" width="29" height="40" as="geometry">
            <mxRectangle width="29" height="40" as="alternateBounds" />
          </mxGeometry>
        </mxCell>
        <mxCell id="j7-8gCURON169_EvJywG-65" value="B2" style="shape=partialRectangle;html=1;whiteSpace=wrap;connectable=0;fillColor=#ffff88;top=0;left=0;bottom=0;right=0;overflow=hidden;fontSize=16;rowspan=1;colspan=2;strokeColor=#000000;strokeWidth=1;perimeterSpacing=0;shadow=0;sketch=0;swimlaneLine=1;" parent="j7-8gCURON169_EvJywG-14" vertex="1">
          <mxGeometry x="668" width="58" height="40" as="geometry">
            <mxRectangle width="29" height="40" as="alternateBounds" />
          </mxGeometry>
        </mxCell>
        <mxCell id="j7-8gCURON169_EvJywG-35" style="shape=partialRectangle;html=1;whiteSpace=wrap;connectable=0;fillColor=#cce5ff;top=0;left=0;bottom=0;right=0;overflow=hidden;fontSize=16;strokeColor=#36393d;" parent="j7-8gCURON169_EvJywG-14" vertex="1" visible="0">
          <mxGeometry x="697" width="29" height="40" as="geometry">
            <mxRectangle width="29" height="40" as="alternateBounds" />
          </mxGeometry>
        </mxCell>
        <mxCell id="j7-8gCURON169_EvJywG-53" value="B1" style="shape=partialRectangle;html=1;whiteSpace=wrap;connectable=0;fillColor=#ffff88;top=0;left=0;bottom=0;right=0;overflow=hidden;fontSize=16;rowspan=1;colspan=2;strokeColor=#000000;strokeWidth=1;perimeterSpacing=0;shadow=0;sketch=0;swimlaneLine=1;" parent="j7-8gCURON169_EvJywG-14" vertex="1">
          <mxGeometry x="726" width="58" height="40" as="geometry">
            <mxRectangle width="29" height="40" as="alternateBounds" />
          </mxGeometry>
        </mxCell>
        <mxCell id="j7-8gCURON169_EvJywG-29" style="shape=partialRectangle;html=1;whiteSpace=wrap;connectable=0;fillColor=none;top=0;left=0;bottom=0;right=0;overflow=hidden;fontSize=16;" parent="j7-8gCURON169_EvJywG-14" vertex="1" visible="0">
          <mxGeometry x="755" width="29" height="40" as="geometry">
            <mxRectangle width="29" height="40" as="alternateBounds" />
          </mxGeometry>
        </mxCell>
        <mxCell id="j7-8gCURON169_EvJywG-16" style="shape=partialRectangle;html=1;whiteSpace=wrap;connectable=0;fillColor=none;top=0;left=0;bottom=0;right=0;overflow=hidden;fontSize=16;strokeColor=#000000;strokeWidth=1;perimeterSpacing=0;shadow=0;sketch=0;swimlaneLine=1;" parent="j7-8gCURON169_EvJywG-14" vertex="1">
          <mxGeometry x="784" width="29" height="40" as="geometry">
            <mxRectangle width="29" height="40" as="alternateBounds" />
          </mxGeometry>
        </mxCell>
        <mxCell id="j7-8gCURON169_EvJywG-236" style="shape=partialRectangle;html=1;whiteSpace=wrap;connectable=0;fillColor=none;top=0;left=0;bottom=0;right=0;overflow=hidden;fontSize=16;strokeColor=#000000;strokeWidth=1;perimeterSpacing=0;shadow=0;sketch=0;swimlaneLine=1;" parent="j7-8gCURON169_EvJywG-14" vertex="1">
          <mxGeometry x="813" width="29" height="40" as="geometry">
            <mxRectangle width="29" height="40" as="alternateBounds" />
          </mxGeometry>
        </mxCell>
        <mxCell id="j7-8gCURON169_EvJywG-230" style="shape=partialRectangle;html=1;whiteSpace=wrap;connectable=0;fillColor=none;top=0;left=0;bottom=0;right=0;overflow=hidden;fontSize=16;strokeColor=#000000;strokeWidth=1;perimeterSpacing=0;shadow=0;sketch=0;swimlaneLine=1;" parent="j7-8gCURON169_EvJywG-14" vertex="1">
          <mxGeometry x="842" width="29" height="40" as="geometry">
            <mxRectangle width="29" height="40" as="alternateBounds" />
          </mxGeometry>
        </mxCell>
        <mxCell id="j7-8gCURON169_EvJywG-17" style="shape=partialRectangle;html=1;whiteSpace=wrap;connectable=0;fillColor=none;top=0;left=0;bottom=0;right=0;overflow=hidden;pointerEvents=1;fontSize=16;strokeColor=#000000;strokeWidth=1;perimeterSpacing=0;shadow=0;sketch=0;swimlaneLine=1;" parent="j7-8gCURON169_EvJywG-14" vertex="1">
          <mxGeometry x="871" width="29" height="40" as="geometry">
            <mxRectangle width="29" height="40" as="alternateBounds" />
          </mxGeometry>
        </mxCell>
        <mxCell id="j7-8gCURON169_EvJywG-18" style="shape=tableRow;horizontal=0;startSize=0;swimlaneHead=0;swimlaneBody=0;top=0;left=0;bottom=0;right=0;collapsible=0;dropTarget=0;fillColor=none;points=[[0,0.5],[1,0.5]];portConstraint=eastwest;fontSize=16;strokeColor=#000000;strokeWidth=1;perimeterSpacing=0;shadow=0;sketch=0;swimlaneLine=1;" parent="j7-8gCURON169_EvJywG-1" vertex="1">
          <mxGeometry y="160" width="900" height="40" as="geometry" />
        </mxCell>
        <mxCell id="j7-8gCURON169_EvJywG-19" value="N2" style="shape=partialRectangle;html=1;whiteSpace=wrap;connectable=0;fillColor=#4D4D4D;top=0;left=0;bottom=0;right=0;overflow=hidden;fontColor=#FFFFFF;fontSize=16;strokeColor=#000000;strokeWidth=1;perimeterSpacing=0;shadow=0;sketch=0;swimlaneLine=1;" parent="j7-8gCURON169_EvJywG-18" vertex="1">
          <mxGeometry width="29" height="40" as="geometry">
            <mxRectangle width="29" height="40" as="alternateBounds" />
          </mxGeometry>
        </mxCell>
        <mxCell id="j7-8gCURON169_EvJywG-180" style="shape=partialRectangle;html=1;whiteSpace=wrap;connectable=0;fillColor=none;top=0;left=0;bottom=0;right=0;overflow=hidden;fontSize=16;strokeColor=#000000;strokeWidth=1;perimeterSpacing=0;shadow=0;sketch=0;swimlaneLine=1;" parent="j7-8gCURON169_EvJywG-18" vertex="1">
          <mxGeometry x="29" width="29" height="40" as="geometry">
            <mxRectangle width="29" height="40" as="alternateBounds" />
          </mxGeometry>
        </mxCell>
        <mxCell id="j7-8gCURON169_EvJywG-174" value="F1" style="shape=partialRectangle;html=1;whiteSpace=wrap;connectable=0;fillColor=#cce5ff;top=0;left=0;bottom=0;right=0;overflow=hidden;fontSize=16;strokeColor=#000000;strokeWidth=1;perimeterSpacing=0;shadow=0;sketch=0;swimlaneLine=1;" parent="j7-8gCURON169_EvJywG-18" vertex="1">
          <mxGeometry x="58" width="29" height="40" as="geometry">
            <mxRectangle width="29" height="40" as="alternateBounds" />
          </mxGeometry>
        </mxCell>
        <mxCell id="j7-8gCURON169_EvJywG-168" value="F2" style="shape=partialRectangle;html=1;whiteSpace=wrap;connectable=0;fillColor=#cce5ff;top=0;left=0;bottom=0;right=0;overflow=hidden;fontSize=16;strokeColor=#000000;strokeWidth=1;perimeterSpacing=0;shadow=0;sketch=0;swimlaneLine=1;" parent="j7-8gCURON169_EvJywG-18" vertex="1">
          <mxGeometry x="87" width="29" height="40" as="geometry">
            <mxRectangle width="29" height="40" as="alternateBounds" />
          </mxGeometry>
        </mxCell>
        <mxCell id="j7-8gCURON169_EvJywG-162" value="F3" style="shape=partialRectangle;html=1;whiteSpace=wrap;connectable=0;fillColor=#cce5ff;top=0;left=0;bottom=0;right=0;overflow=hidden;fontSize=16;strokeColor=#000000;strokeWidth=1;perimeterSpacing=0;shadow=0;sketch=0;swimlaneLine=1;" parent="j7-8gCURON169_EvJywG-18" vertex="1">
          <mxGeometry x="116" width="29" height="40" as="geometry">
            <mxRectangle width="29" height="40" as="alternateBounds" />
          </mxGeometry>
        </mxCell>
        <mxCell id="j7-8gCURON169_EvJywG-156" value="F4" style="shape=partialRectangle;html=1;whiteSpace=wrap;connectable=0;fillColor=#cce5ff;top=0;left=0;bottom=0;right=0;overflow=hidden;fontSize=16;strokeColor=#000000;strokeWidth=1;perimeterSpacing=0;shadow=0;sketch=0;swimlaneLine=1;" parent="j7-8gCURON169_EvJywG-18" vertex="1">
          <mxGeometry x="145" width="29" height="40" as="geometry">
            <mxRectangle width="29" height="40" as="alternateBounds" />
          </mxGeometry>
        </mxCell>
        <mxCell id="j7-8gCURON169_EvJywG-150" value="F5" style="shape=partialRectangle;html=1;whiteSpace=wrap;connectable=0;fillColor=#cce5ff;top=0;left=0;bottom=0;right=0;overflow=hidden;fontSize=16;strokeColor=#000000;strokeWidth=1;perimeterSpacing=0;shadow=0;sketch=0;swimlaneLine=1;" parent="j7-8gCURON169_EvJywG-18" vertex="1">
          <mxGeometry x="174" width="29" height="40" as="geometry">
            <mxRectangle width="29" height="40" as="alternateBounds" />
          </mxGeometry>
        </mxCell>
        <mxCell id="j7-8gCURON169_EvJywG-144" style="shape=partialRectangle;html=1;whiteSpace=wrap;connectable=0;fillColor=none;top=0;left=0;bottom=0;right=0;overflow=hidden;fontSize=16;strokeColor=#000000;strokeWidth=1;perimeterSpacing=0;shadow=0;sketch=0;swimlaneLine=1;" parent="j7-8gCURON169_EvJywG-18" vertex="1">
          <mxGeometry x="203" width="29" height="40" as="geometry">
            <mxRectangle width="29" height="40" as="alternateBounds" />
          </mxGeometry>
        </mxCell>
        <mxCell id="j7-8gCURON169_EvJywG-138" style="shape=partialRectangle;html=1;whiteSpace=wrap;connectable=0;fillColor=none;top=0;left=0;bottom=0;right=0;overflow=hidden;fontSize=16;strokeColor=#000000;strokeWidth=1;perimeterSpacing=0;shadow=0;sketch=0;swimlaneLine=1;" parent="j7-8gCURON169_EvJywG-18" vertex="1">
          <mxGeometry x="232" width="29" height="40" as="geometry">
            <mxRectangle width="29" height="40" as="alternateBounds" />
          </mxGeometry>
        </mxCell>
        <mxCell id="j7-8gCURON169_EvJywG-132" style="shape=partialRectangle;html=1;whiteSpace=wrap;connectable=0;fillColor=none;top=0;left=0;bottom=0;right=0;overflow=hidden;fontSize=16;strokeColor=#000000;strokeWidth=1;perimeterSpacing=0;shadow=0;sketch=0;swimlaneLine=1;" parent="j7-8gCURON169_EvJywG-18" vertex="1">
          <mxGeometry x="261" width="29" height="40" as="geometry">
            <mxRectangle width="29" height="40" as="alternateBounds" />
          </mxGeometry>
        </mxCell>
        <mxCell id="j7-8gCURON169_EvJywG-126" style="shape=partialRectangle;html=1;whiteSpace=wrap;connectable=0;fillColor=none;top=0;left=0;bottom=0;right=0;overflow=hidden;fontSize=16;strokeColor=#000000;strokeWidth=1;perimeterSpacing=0;shadow=0;sketch=0;swimlaneLine=1;" parent="j7-8gCURON169_EvJywG-18" vertex="1">
          <mxGeometry x="290" width="29" height="40" as="geometry">
            <mxRectangle width="29" height="40" as="alternateBounds" />
          </mxGeometry>
        </mxCell>
        <mxCell id="j7-8gCURON169_EvJywG-120" style="shape=partialRectangle;html=1;whiteSpace=wrap;connectable=0;fillColor=none;top=0;left=0;bottom=0;right=0;overflow=hidden;fontSize=16;strokeColor=#000000;strokeWidth=1;perimeterSpacing=0;shadow=0;sketch=0;swimlaneLine=1;" parent="j7-8gCURON169_EvJywG-18" vertex="1">
          <mxGeometry x="319" width="29" height="40" as="geometry">
            <mxRectangle width="29" height="40" as="alternateBounds" />
          </mxGeometry>
        </mxCell>
        <mxCell id="j7-8gCURON169_EvJywG-114" style="shape=partialRectangle;html=1;whiteSpace=wrap;connectable=0;fillColor=none;top=0;left=0;bottom=0;right=0;overflow=hidden;fontSize=16;strokeColor=#000000;strokeWidth=1;perimeterSpacing=0;shadow=0;sketch=0;swimlaneLine=1;" parent="j7-8gCURON169_EvJywG-18" vertex="1">
          <mxGeometry x="348" width="29" height="40" as="geometry">
            <mxRectangle width="29" height="40" as="alternateBounds" />
          </mxGeometry>
        </mxCell>
        <mxCell id="j7-8gCURON169_EvJywG-108" style="shape=partialRectangle;html=1;whiteSpace=wrap;connectable=0;fillColor=none;top=0;left=0;bottom=0;right=0;overflow=hidden;fontSize=16;strokeColor=#000000;strokeWidth=1;perimeterSpacing=0;shadow=0;sketch=0;swimlaneLine=1;" parent="j7-8gCURON169_EvJywG-18" vertex="1">
          <mxGeometry x="377" width="29" height="40" as="geometry">
            <mxRectangle width="29" height="40" as="alternateBounds" />
          </mxGeometry>
        </mxCell>
        <mxCell id="j7-8gCURON169_EvJywG-102" style="shape=partialRectangle;html=1;whiteSpace=wrap;connectable=0;fillColor=none;top=0;left=0;bottom=0;right=0;overflow=hidden;fontSize=16;strokeColor=#000000;strokeWidth=1;perimeterSpacing=0;shadow=0;sketch=0;swimlaneLine=1;" parent="j7-8gCURON169_EvJywG-18" vertex="1">
          <mxGeometry x="406" width="29" height="40" as="geometry">
            <mxRectangle width="29" height="40" as="alternateBounds" />
          </mxGeometry>
        </mxCell>
        <mxCell id="j7-8gCURON169_EvJywG-90" style="shape=partialRectangle;html=1;whiteSpace=wrap;connectable=0;fillColor=none;top=0;left=0;bottom=0;right=0;overflow=hidden;fontSize=16;strokeColor=#000000;strokeWidth=1;perimeterSpacing=0;shadow=0;sketch=0;swimlaneLine=1;" parent="j7-8gCURON169_EvJywG-18" vertex="1">
          <mxGeometry x="435" width="30" height="40" as="geometry">
            <mxRectangle width="30" height="40" as="alternateBounds" />
          </mxGeometry>
        </mxCell>
        <mxCell id="j7-8gCURON169_EvJywG-78" style="shape=partialRectangle;html=1;whiteSpace=wrap;connectable=0;fillColor=none;top=0;left=0;bottom=0;right=0;overflow=hidden;fontSize=16;strokeColor=#000000;strokeWidth=1;perimeterSpacing=0;shadow=0;sketch=0;swimlaneLine=1;" parent="j7-8gCURON169_EvJywG-18" vertex="1">
          <mxGeometry x="465" width="29" height="40" as="geometry">
            <mxRectangle width="29" height="40" as="alternateBounds" />
          </mxGeometry>
        </mxCell>
        <mxCell id="j7-8gCURON169_EvJywG-66" style="shape=partialRectangle;html=1;whiteSpace=wrap;connectable=0;fillColor=none;top=0;left=0;bottom=0;right=0;overflow=hidden;fontSize=16;strokeColor=#000000;strokeWidth=1;perimeterSpacing=0;shadow=0;sketch=0;swimlaneLine=1;" parent="j7-8gCURON169_EvJywG-18" vertex="1">
          <mxGeometry x="494" width="29" height="40" as="geometry">
            <mxRectangle width="29" height="40" as="alternateBounds" />
          </mxGeometry>
        </mxCell>
        <mxCell id="j7-8gCURON169_EvJywG-54" style="shape=partialRectangle;html=1;whiteSpace=wrap;connectable=0;fillColor=none;top=0;left=0;bottom=0;right=0;overflow=hidden;fontSize=16;strokeColor=#000000;strokeWidth=1;perimeterSpacing=0;shadow=0;sketch=0;swimlaneLine=1;" parent="j7-8gCURON169_EvJywG-18" vertex="1">
          <mxGeometry x="523" width="29" height="40" as="geometry">
            <mxRectangle width="29" height="40" as="alternateBounds" />
          </mxGeometry>
        </mxCell>
        <mxCell id="j7-8gCURON169_EvJywG-96" value="B5" style="shape=partialRectangle;html=1;whiteSpace=wrap;connectable=0;fillColor=#cce5ff;top=0;left=0;bottom=0;right=0;overflow=hidden;fontSize=16;rowspan=1;colspan=2;strokeColor=#000000;strokeWidth=1;perimeterSpacing=0;shadow=0;sketch=0;swimlaneLine=1;" parent="j7-8gCURON169_EvJywG-18" vertex="1">
          <mxGeometry x="552" width="58" height="40" as="geometry">
            <mxRectangle width="29" height="40" as="alternateBounds" />
          </mxGeometry>
        </mxCell>
        <mxCell id="j7-8gCURON169_EvJywG-42" style="shape=partialRectangle;html=1;whiteSpace=wrap;connectable=0;fillColor=#cce5ff;top=0;left=0;bottom=0;right=0;overflow=hidden;fontSize=16;strokeColor=#36393d;" parent="j7-8gCURON169_EvJywG-18" vertex="1" visible="0">
          <mxGeometry x="581" width="29" height="40" as="geometry">
            <mxRectangle width="29" height="40" as="alternateBounds" />
          </mxGeometry>
        </mxCell>
        <mxCell id="j7-8gCURON169_EvJywG-84" value="B4" style="shape=partialRectangle;html=1;whiteSpace=wrap;connectable=0;fillColor=#cce5ff;top=0;left=0;bottom=0;right=0;overflow=hidden;fontSize=16;rowspan=1;colspan=2;strokeColor=#000000;strokeWidth=1;perimeterSpacing=0;shadow=0;sketch=0;swimlaneLine=1;" parent="j7-8gCURON169_EvJywG-18" vertex="1">
          <mxGeometry x="610" width="58" height="40" as="geometry">
            <mxRectangle width="29" height="40" as="alternateBounds" />
          </mxGeometry>
        </mxCell>
        <mxCell id="j7-8gCURON169_EvJywG-36" style="shape=partialRectangle;html=1;whiteSpace=wrap;connectable=0;fillColor=#cce5ff;top=0;left=0;bottom=0;right=0;overflow=hidden;fontSize=16;strokeColor=#36393d;" parent="j7-8gCURON169_EvJywG-18" vertex="1" visible="0">
          <mxGeometry x="639" width="29" height="40" as="geometry">
            <mxRectangle width="29" height="40" as="alternateBounds" />
          </mxGeometry>
        </mxCell>
        <mxCell id="j7-8gCURON169_EvJywG-72" value="B3" style="shape=partialRectangle;html=1;whiteSpace=wrap;connectable=0;fillColor=#cce5ff;top=0;left=0;bottom=0;right=0;overflow=hidden;fontSize=16;rowspan=1;colspan=2;strokeColor=#000000;strokeWidth=1;perimeterSpacing=0;shadow=0;sketch=0;swimlaneLine=1;" parent="j7-8gCURON169_EvJywG-18" vertex="1">
          <mxGeometry x="668" width="58" height="40" as="geometry">
            <mxRectangle width="29" height="40" as="alternateBounds" />
          </mxGeometry>
        </mxCell>
        <mxCell id="j7-8gCURON169_EvJywG-30" style="shape=partialRectangle;html=1;whiteSpace=wrap;connectable=0;fillColor=#cce5ff;top=0;left=0;bottom=0;right=0;overflow=hidden;fontSize=16;strokeColor=#36393d;" parent="j7-8gCURON169_EvJywG-18" vertex="1" visible="0">
          <mxGeometry x="697" width="29" height="40" as="geometry">
            <mxRectangle width="29" height="40" as="alternateBounds" />
          </mxGeometry>
        </mxCell>
        <mxCell id="j7-8gCURON169_EvJywG-60" value="B2" style="shape=partialRectangle;html=1;whiteSpace=wrap;connectable=0;fillColor=#cce5ff;top=0;left=0;bottom=0;right=0;overflow=hidden;fontSize=16;rowspan=1;colspan=2;strokeColor=#000000;strokeWidth=1;perimeterSpacing=0;shadow=0;sketch=0;swimlaneLine=1;" parent="j7-8gCURON169_EvJywG-18" vertex="1">
          <mxGeometry x="726" width="58" height="40" as="geometry">
            <mxRectangle width="29" height="40" as="alternateBounds" />
          </mxGeometry>
        </mxCell>
        <mxCell id="j7-8gCURON169_EvJywG-20" style="shape=partialRectangle;html=1;whiteSpace=wrap;connectable=0;fillColor=#cce5ff;top=0;left=0;bottom=0;right=0;overflow=hidden;fontSize=16;strokeColor=#36393d;" parent="j7-8gCURON169_EvJywG-18" vertex="1" visible="0">
          <mxGeometry x="755" width="29" height="40" as="geometry">
            <mxRectangle width="29" height="40" as="alternateBounds" />
          </mxGeometry>
        </mxCell>
        <mxCell id="j7-8gCURON169_EvJywG-48" value="B1" style="shape=partialRectangle;html=1;whiteSpace=wrap;connectable=0;fillColor=#cce5ff;top=0;left=0;bottom=0;right=0;overflow=hidden;fontSize=16;rowspan=1;colspan=2;strokeColor=#000000;strokeWidth=1;perimeterSpacing=0;shadow=0;sketch=0;swimlaneLine=1;" parent="j7-8gCURON169_EvJywG-18" vertex="1">
          <mxGeometry x="784" width="58" height="40" as="geometry">
            <mxRectangle width="29" height="40" as="alternateBounds" />
          </mxGeometry>
        </mxCell>
        <mxCell id="j7-8gCURON169_EvJywG-237" style="shape=partialRectangle;html=1;whiteSpace=wrap;connectable=0;fillColor=none;top=0;left=0;bottom=0;right=0;overflow=hidden;fontSize=16;" parent="j7-8gCURON169_EvJywG-18" vertex="1" visible="0">
          <mxGeometry x="813" width="29" height="40" as="geometry">
            <mxRectangle width="29" height="40" as="alternateBounds" />
          </mxGeometry>
        </mxCell>
        <mxCell id="j7-8gCURON169_EvJywG-231" style="shape=partialRectangle;html=1;whiteSpace=wrap;connectable=0;fillColor=none;top=0;left=0;bottom=0;right=0;overflow=hidden;fontSize=16;strokeColor=#000000;strokeWidth=1;perimeterSpacing=0;shadow=0;sketch=0;swimlaneLine=1;" parent="j7-8gCURON169_EvJywG-18" vertex="1">
          <mxGeometry x="842" width="29" height="40" as="geometry">
            <mxRectangle width="29" height="40" as="alternateBounds" />
          </mxGeometry>
        </mxCell>
        <mxCell id="j7-8gCURON169_EvJywG-21" style="shape=partialRectangle;html=1;whiteSpace=wrap;connectable=0;fillColor=none;top=0;left=0;bottom=0;right=0;overflow=hidden;pointerEvents=1;fontSize=16;strokeColor=#000000;strokeWidth=1;perimeterSpacing=0;shadow=0;sketch=0;swimlaneLine=1;" parent="j7-8gCURON169_EvJywG-18" vertex="1">
          <mxGeometry x="871" width="29" height="40" as="geometry">
            <mxRectangle width="29" height="40" as="alternateBounds" />
          </mxGeometry>
        </mxCell>
        <mxCell id="j7-8gCURON169_EvJywG-22" style="shape=tableRow;horizontal=0;startSize=0;swimlaneHead=0;swimlaneBody=0;top=0;left=0;bottom=0;right=0;collapsible=0;dropTarget=0;fillColor=none;points=[[0,0.5],[1,0.5]];portConstraint=eastwest;fontSize=16;strokeColor=#000000;strokeWidth=1;perimeterSpacing=0;shadow=0;sketch=0;swimlaneLine=1;" parent="j7-8gCURON169_EvJywG-1" vertex="1">
          <mxGeometry y="200" width="900" height="40" as="geometry" />
        </mxCell>
        <mxCell id="j7-8gCURON169_EvJywG-23" value="N1" style="shape=partialRectangle;html=1;whiteSpace=wrap;connectable=0;fillColor=#4D4D4D;top=0;left=0;bottom=0;right=0;overflow=hidden;fontColor=#FFFFFF;fontSize=16;strokeColor=#000000;strokeWidth=1;perimeterSpacing=0;shadow=0;sketch=0;swimlaneLine=1;" parent="j7-8gCURON169_EvJywG-22" vertex="1">
          <mxGeometry width="29" height="40" as="geometry">
            <mxRectangle width="29" height="40" as="alternateBounds" />
          </mxGeometry>
        </mxCell>
        <mxCell id="j7-8gCURON169_EvJywG-181" value="F1" style="shape=partialRectangle;html=1;whiteSpace=wrap;connectable=0;fillColor=#ffcc99;top=0;left=0;bottom=0;right=0;overflow=hidden;fontSize=16;strokeColor=#000000;strokeWidth=1;perimeterSpacing=0;shadow=0;sketch=0;swimlaneLine=1;" parent="j7-8gCURON169_EvJywG-22" vertex="1">
          <mxGeometry x="29" width="29" height="40" as="geometry">
            <mxRectangle width="29" height="40" as="alternateBounds" />
          </mxGeometry>
        </mxCell>
        <mxCell id="j7-8gCURON169_EvJywG-175" value="F2" style="shape=partialRectangle;html=1;whiteSpace=wrap;connectable=0;fillColor=#ffcc99;top=0;left=0;bottom=0;right=0;overflow=hidden;fontSize=16;strokeColor=#000000;strokeWidth=1;perimeterSpacing=0;shadow=0;sketch=0;swimlaneLine=1;" parent="j7-8gCURON169_EvJywG-22" vertex="1">
          <mxGeometry x="58" width="29" height="40" as="geometry">
            <mxRectangle width="29" height="40" as="alternateBounds" />
          </mxGeometry>
        </mxCell>
        <mxCell id="j7-8gCURON169_EvJywG-169" value="F3" style="shape=partialRectangle;html=1;whiteSpace=wrap;connectable=0;fillColor=#ffcc99;top=0;left=0;bottom=0;right=0;overflow=hidden;fontSize=16;strokeColor=#000000;strokeWidth=1;perimeterSpacing=0;shadow=0;sketch=0;swimlaneLine=1;" parent="j7-8gCURON169_EvJywG-22" vertex="1">
          <mxGeometry x="87" width="29" height="40" as="geometry">
            <mxRectangle width="29" height="40" as="alternateBounds" />
          </mxGeometry>
        </mxCell>
        <mxCell id="j7-8gCURON169_EvJywG-163" value="F4" style="shape=partialRectangle;html=1;whiteSpace=wrap;connectable=0;fillColor=#ffcc99;top=0;left=0;bottom=0;right=0;overflow=hidden;fontSize=16;strokeColor=#000000;strokeWidth=1;perimeterSpacing=0;shadow=0;sketch=0;swimlaneLine=1;" parent="j7-8gCURON169_EvJywG-22" vertex="1">
          <mxGeometry x="116" width="29" height="40" as="geometry">
            <mxRectangle width="29" height="40" as="alternateBounds" />
          </mxGeometry>
        </mxCell>
        <mxCell id="j7-8gCURON169_EvJywG-157" value="F5" style="shape=partialRectangle;html=1;whiteSpace=wrap;connectable=0;fillColor=#ffcc99;top=0;left=0;bottom=0;right=0;overflow=hidden;fontSize=16;strokeColor=#000000;strokeWidth=1;perimeterSpacing=0;shadow=0;sketch=0;swimlaneLine=1;" parent="j7-8gCURON169_EvJywG-22" vertex="1">
          <mxGeometry x="145" width="29" height="40" as="geometry">
            <mxRectangle width="29" height="40" as="alternateBounds" />
          </mxGeometry>
        </mxCell>
        <mxCell id="j7-8gCURON169_EvJywG-151" style="shape=partialRectangle;html=1;whiteSpace=wrap;connectable=0;fillColor=none;top=0;left=0;bottom=0;right=0;overflow=hidden;fontSize=16;strokeColor=#000000;strokeWidth=1;perimeterSpacing=0;shadow=0;sketch=0;swimlaneLine=1;" parent="j7-8gCURON169_EvJywG-22" vertex="1">
          <mxGeometry x="174" width="29" height="40" as="geometry">
            <mxRectangle width="29" height="40" as="alternateBounds" />
          </mxGeometry>
        </mxCell>
        <mxCell id="j7-8gCURON169_EvJywG-145" style="shape=partialRectangle;html=1;whiteSpace=wrap;connectable=0;fillColor=none;top=0;left=0;bottom=0;right=0;overflow=hidden;fontSize=16;strokeColor=#000000;strokeWidth=1;perimeterSpacing=0;shadow=0;sketch=0;swimlaneLine=1;" parent="j7-8gCURON169_EvJywG-22" vertex="1">
          <mxGeometry x="203" width="29" height="40" as="geometry">
            <mxRectangle width="29" height="40" as="alternateBounds" />
          </mxGeometry>
        </mxCell>
        <mxCell id="j7-8gCURON169_EvJywG-139" style="shape=partialRectangle;html=1;whiteSpace=wrap;connectable=0;fillColor=none;top=0;left=0;bottom=0;right=0;overflow=hidden;fontSize=16;strokeColor=#000000;strokeWidth=1;perimeterSpacing=0;shadow=0;sketch=0;swimlaneLine=1;" parent="j7-8gCURON169_EvJywG-22" vertex="1">
          <mxGeometry x="232" width="29" height="40" as="geometry">
            <mxRectangle width="29" height="40" as="alternateBounds" />
          </mxGeometry>
        </mxCell>
        <mxCell id="j7-8gCURON169_EvJywG-133" style="shape=partialRectangle;html=1;whiteSpace=wrap;connectable=0;fillColor=none;top=0;left=0;bottom=0;right=0;overflow=hidden;fontSize=16;strokeColor=#000000;strokeWidth=1;perimeterSpacing=0;shadow=0;sketch=0;swimlaneLine=1;" parent="j7-8gCURON169_EvJywG-22" vertex="1">
          <mxGeometry x="261" width="29" height="40" as="geometry">
            <mxRectangle width="29" height="40" as="alternateBounds" />
          </mxGeometry>
        </mxCell>
        <mxCell id="j7-8gCURON169_EvJywG-127" style="shape=partialRectangle;html=1;whiteSpace=wrap;connectable=0;fillColor=none;top=0;left=0;bottom=0;right=0;overflow=hidden;fontSize=16;strokeColor=#000000;strokeWidth=1;perimeterSpacing=0;shadow=0;sketch=0;swimlaneLine=1;" parent="j7-8gCURON169_EvJywG-22" vertex="1">
          <mxGeometry x="290" width="29" height="40" as="geometry">
            <mxRectangle width="29" height="40" as="alternateBounds" />
          </mxGeometry>
        </mxCell>
        <mxCell id="j7-8gCURON169_EvJywG-121" style="shape=partialRectangle;html=1;whiteSpace=wrap;connectable=0;fillColor=none;top=0;left=0;bottom=0;right=0;overflow=hidden;fontSize=16;strokeColor=#000000;strokeWidth=1;perimeterSpacing=0;shadow=0;sketch=0;swimlaneLine=1;" parent="j7-8gCURON169_EvJywG-22" vertex="1">
          <mxGeometry x="319" width="29" height="40" as="geometry">
            <mxRectangle width="29" height="40" as="alternateBounds" />
          </mxGeometry>
        </mxCell>
        <mxCell id="j7-8gCURON169_EvJywG-115" style="shape=partialRectangle;html=1;whiteSpace=wrap;connectable=0;fillColor=none;top=0;left=0;bottom=0;right=0;overflow=hidden;fontSize=16;strokeColor=#000000;strokeWidth=1;perimeterSpacing=0;shadow=0;sketch=0;swimlaneLine=1;" parent="j7-8gCURON169_EvJywG-22" vertex="1">
          <mxGeometry x="348" width="29" height="40" as="geometry">
            <mxRectangle width="29" height="40" as="alternateBounds" />
          </mxGeometry>
        </mxCell>
        <mxCell id="j7-8gCURON169_EvJywG-109" style="shape=partialRectangle;html=1;whiteSpace=wrap;connectable=0;fillColor=none;top=0;left=0;bottom=0;right=0;overflow=hidden;fontSize=16;strokeColor=#000000;strokeWidth=1;perimeterSpacing=0;shadow=0;sketch=0;swimlaneLine=1;" parent="j7-8gCURON169_EvJywG-22" vertex="1">
          <mxGeometry x="377" width="29" height="40" as="geometry">
            <mxRectangle width="29" height="40" as="alternateBounds" />
          </mxGeometry>
        </mxCell>
        <mxCell id="j7-8gCURON169_EvJywG-103" style="shape=partialRectangle;html=1;whiteSpace=wrap;connectable=0;fillColor=none;top=0;left=0;bottom=0;right=0;overflow=hidden;fontSize=16;strokeColor=#000000;strokeWidth=1;perimeterSpacing=0;shadow=0;sketch=0;swimlaneLine=1;" parent="j7-8gCURON169_EvJywG-22" vertex="1">
          <mxGeometry x="406" width="29" height="40" as="geometry">
            <mxRectangle width="29" height="40" as="alternateBounds" />
          </mxGeometry>
        </mxCell>
        <mxCell id="j7-8gCURON169_EvJywG-97" style="shape=partialRectangle;html=1;whiteSpace=wrap;connectable=0;fillColor=none;top=0;left=0;bottom=0;right=0;overflow=hidden;fontSize=16;strokeColor=#000000;strokeWidth=1;perimeterSpacing=0;shadow=0;sketch=0;swimlaneLine=1;" parent="j7-8gCURON169_EvJywG-22" vertex="1">
          <mxGeometry x="435" width="30" height="40" as="geometry">
            <mxRectangle width="30" height="40" as="alternateBounds" />
          </mxGeometry>
        </mxCell>
        <mxCell id="j7-8gCURON169_EvJywG-91" style="shape=partialRectangle;html=1;whiteSpace=wrap;connectable=0;fillColor=none;top=0;left=0;bottom=0;right=0;overflow=hidden;fontSize=16;strokeColor=#000000;strokeWidth=1;perimeterSpacing=0;shadow=0;sketch=0;swimlaneLine=1;" parent="j7-8gCURON169_EvJywG-22" vertex="1">
          <mxGeometry x="465" width="29" height="40" as="geometry">
            <mxRectangle width="29" height="40" as="alternateBounds" />
          </mxGeometry>
        </mxCell>
        <mxCell id="j7-8gCURON169_EvJywG-85" style="shape=partialRectangle;html=1;whiteSpace=wrap;connectable=0;fillColor=none;top=0;left=0;bottom=0;right=0;overflow=hidden;fontSize=16;strokeColor=#000000;strokeWidth=1;perimeterSpacing=0;shadow=0;sketch=0;swimlaneLine=1;" parent="j7-8gCURON169_EvJywG-22" vertex="1">
          <mxGeometry x="494" width="29" height="40" as="geometry">
            <mxRectangle width="29" height="40" as="alternateBounds" />
          </mxGeometry>
        </mxCell>
        <mxCell id="j7-8gCURON169_EvJywG-79" style="shape=partialRectangle;html=1;whiteSpace=wrap;connectable=0;fillColor=none;top=0;left=0;bottom=0;right=0;overflow=hidden;fontSize=16;strokeColor=#000000;strokeWidth=1;perimeterSpacing=0;shadow=0;sketch=0;swimlaneLine=1;" parent="j7-8gCURON169_EvJywG-22" vertex="1">
          <mxGeometry x="523" width="29" height="40" as="geometry">
            <mxRectangle width="29" height="40" as="alternateBounds" />
          </mxGeometry>
        </mxCell>
        <mxCell id="j7-8gCURON169_EvJywG-73" style="shape=partialRectangle;html=1;whiteSpace=wrap;connectable=0;fillColor=none;top=0;left=0;bottom=0;right=0;overflow=hidden;fontSize=16;strokeColor=#000000;strokeWidth=1;perimeterSpacing=0;shadow=0;sketch=0;swimlaneLine=1;" parent="j7-8gCURON169_EvJywG-22" vertex="1">
          <mxGeometry x="552" width="29" height="40" as="geometry">
            <mxRectangle width="29" height="40" as="alternateBounds" />
          </mxGeometry>
        </mxCell>
        <mxCell id="j7-8gCURON169_EvJywG-67" style="shape=partialRectangle;html=1;whiteSpace=wrap;connectable=0;fillColor=none;top=0;left=0;bottom=0;right=0;overflow=hidden;fontSize=16;strokeColor=#000000;strokeWidth=1;perimeterSpacing=0;shadow=0;sketch=0;swimlaneLine=1;" parent="j7-8gCURON169_EvJywG-22" vertex="1">
          <mxGeometry x="581" width="29" height="40" as="geometry">
            <mxRectangle width="29" height="40" as="alternateBounds" />
          </mxGeometry>
        </mxCell>
        <mxCell id="j7-8gCURON169_EvJywG-61" value="B5" style="shape=partialRectangle;html=1;whiteSpace=wrap;connectable=0;fillColor=#ffcc99;top=0;left=0;bottom=0;right=0;overflow=hidden;fontSize=16;rowspan=1;colspan=2;strokeColor=#000000;strokeWidth=1;perimeterSpacing=0;shadow=0;sketch=0;swimlaneLine=1;" parent="j7-8gCURON169_EvJywG-22" vertex="1">
          <mxGeometry x="610" width="58" height="40" as="geometry">
            <mxRectangle width="29" height="40" as="alternateBounds" />
          </mxGeometry>
        </mxCell>
        <mxCell id="j7-8gCURON169_EvJywG-55" style="shape=partialRectangle;html=1;whiteSpace=wrap;connectable=0;fillColor=none;top=0;left=0;bottom=0;right=0;overflow=hidden;fontSize=16;" parent="j7-8gCURON169_EvJywG-22" vertex="1" visible="0">
          <mxGeometry x="639" width="29" height="40" as="geometry">
            <mxRectangle width="29" height="40" as="alternateBounds" />
          </mxGeometry>
        </mxCell>
        <mxCell id="j7-8gCURON169_EvJywG-49" value="B4" style="shape=partialRectangle;html=1;whiteSpace=wrap;connectable=0;fillColor=#ffcc99;top=0;left=0;bottom=0;right=0;overflow=hidden;fontSize=16;rowspan=1;colspan=2;strokeColor=#000000;strokeWidth=1;perimeterSpacing=0;shadow=0;sketch=0;swimlaneLine=1;" parent="j7-8gCURON169_EvJywG-22" vertex="1">
          <mxGeometry x="668" width="58" height="40" as="geometry">
            <mxRectangle width="29" height="40" as="alternateBounds" />
          </mxGeometry>
        </mxCell>
        <mxCell id="j7-8gCURON169_EvJywG-43" style="shape=partialRectangle;html=1;whiteSpace=wrap;connectable=0;fillColor=none;top=0;left=0;bottom=0;right=0;overflow=hidden;fontSize=16;" parent="j7-8gCURON169_EvJywG-22" vertex="1" visible="0">
          <mxGeometry x="697" width="29" height="40" as="geometry">
            <mxRectangle width="29" height="40" as="alternateBounds" />
          </mxGeometry>
        </mxCell>
        <mxCell id="j7-8gCURON169_EvJywG-37" value="B3" style="shape=partialRectangle;html=1;whiteSpace=wrap;connectable=0;fillColor=#ffcc99;top=0;left=0;bottom=0;right=0;overflow=hidden;fontSize=16;rowspan=1;colspan=2;strokeColor=#000000;strokeWidth=1;perimeterSpacing=0;shadow=0;sketch=0;swimlaneLine=1;" parent="j7-8gCURON169_EvJywG-22" vertex="1">
          <mxGeometry x="726" width="58" height="40" as="geometry">
            <mxRectangle width="29" height="40" as="alternateBounds" />
          </mxGeometry>
        </mxCell>
        <mxCell id="j7-8gCURON169_EvJywG-31" style="shape=partialRectangle;html=1;whiteSpace=wrap;connectable=0;fillColor=none;top=0;left=0;bottom=0;right=0;overflow=hidden;fontSize=16;" parent="j7-8gCURON169_EvJywG-22" vertex="1" visible="0">
          <mxGeometry x="755" width="29" height="40" as="geometry">
            <mxRectangle width="29" height="40" as="alternateBounds" />
          </mxGeometry>
        </mxCell>
        <mxCell id="j7-8gCURON169_EvJywG-24" value="B2" style="shape=partialRectangle;html=1;whiteSpace=wrap;connectable=0;fillColor=#ffcc99;top=0;left=0;bottom=0;right=0;overflow=hidden;fontSize=16;rowspan=1;colspan=2;strokeColor=#000000;strokeWidth=1;perimeterSpacing=0;shadow=0;sketch=0;swimlaneLine=1;" parent="j7-8gCURON169_EvJywG-22" vertex="1">
          <mxGeometry x="784" width="58" height="40" as="geometry">
            <mxRectangle width="29" height="40" as="alternateBounds" />
          </mxGeometry>
        </mxCell>
        <mxCell id="j7-8gCURON169_EvJywG-238" style="shape=partialRectangle;html=1;whiteSpace=wrap;connectable=0;fillColor=none;top=0;left=0;bottom=0;right=0;overflow=hidden;fontSize=16;" parent="j7-8gCURON169_EvJywG-22" vertex="1" visible="0">
          <mxGeometry x="813" width="29" height="40" as="geometry">
            <mxRectangle width="29" height="40" as="alternateBounds" />
          </mxGeometry>
        </mxCell>
        <mxCell id="j7-8gCURON169_EvJywG-232" value="B1" style="shape=partialRectangle;html=1;whiteSpace=wrap;connectable=0;fillColor=#ffcc99;top=0;left=0;bottom=0;right=0;overflow=hidden;fontSize=16;rowspan=1;colspan=2;strokeColor=#000000;strokeWidth=1;perimeterSpacing=0;shadow=0;sketch=0;swimlaneLine=1;" parent="j7-8gCURON169_EvJywG-22" vertex="1">
          <mxGeometry x="842" width="58" height="40" as="geometry">
            <mxRectangle width="29" height="40" as="alternateBounds" />
          </mxGeometry>
        </mxCell>
        <mxCell id="j7-8gCURON169_EvJywG-25" style="shape=partialRectangle;html=1;whiteSpace=wrap;connectable=0;fillColor=none;top=0;left=0;bottom=0;right=0;overflow=hidden;pointerEvents=1;fontSize=16;" parent="j7-8gCURON169_EvJywG-22" vertex="1" visible="0">
          <mxGeometry x="871" width="29" height="40" as="geometry">
            <mxRectangle width="29" height="40" as="alternateBounds" />
          </mxGeometry>
        </mxCell>
      </root>
    </mxGraphModel>
  </diagram>
</mxfile>
